<svg width="573" height="982" viewBox="0 0 573 982" fill="none" xmlns="http://www.w3.org/2000/svg">
<g id="DEMOGRAPHIC_BipocEducators_Black" clip-path="url(#clip0_1896_2579)">
<circle id="Ellipse 18" cx="70.8188" cy="841.819" r="69.0688" fill="#222222" stroke="#222222" stroke-width="1.5"/>
<circle id="Ellipse 46" cx="377.819" cy="369.819" r="69.0688" stroke="#222222" stroke-width="1.5"/>
<circle id="Ellipse 20" cx="358.819" cy="666.819" r="69.0688" stroke="#222222" stroke-width="1.5"/>
<path id="Ellipse 19" d="M572.521 432.227C572.521 470.594 541.236 501.704 502.635 501.704C464.035 501.704 432.75 470.594 432.75 432.227C432.75 393.86 464.035 362.75 502.635 362.75C541.236 362.75 572.521 393.86 572.521 432.227Z" stroke="#222222" stroke-width="1.5"/>
<circle id="Ellipse 39" cx="413.819" cy="179.819" r="69.0688" fill="#222222" stroke="#222222" stroke-width="1.5"/>
<path id="Ellipse 37" d="M227.888 281.41C227.888 319.326 196.969 350.071 158.819 350.071C120.669 350.071 89.75 319.326 89.75 281.41C89.75 243.494 120.669 212.75 158.819 212.75C196.969 212.75 227.888 243.494 227.888 281.41Z" stroke="#222222" stroke-width="1.5"/>
<path id="Ellipse 44" d="M387.704 506.819C387.704 544.96 356.602 575.888 318.227 575.888C279.852 575.888 248.75 544.96 248.75 506.819C248.75 468.677 279.852 437.75 318.227 437.75C356.602 437.75 387.704 468.677 387.704 506.819Z" fill="#222222" stroke="#222222" stroke-width="1.5"/>
<path id="Ellipse 42" d="M309.888 392.41C309.888 430.326 278.969 461.071 240.819 461.071C202.669 461.071 171.75 430.326 171.75 392.41C171.75 354.494 202.669 323.75 240.819 323.75C278.969 323.75 309.888 354.494 309.888 392.41Z" stroke="#222222" stroke-width="1.5"/>
<path id="Ellipse 30" d="M569.888 687.41C569.888 725.326 538.969 756.071 500.819 756.071C462.669 756.071 431.75 725.326 431.75 687.41C431.75 649.494 462.669 618.75 500.819 618.75C538.969 618.75 569.888 649.494 569.888 687.41Z" fill="#222222" stroke="#222222" stroke-width="1.5"/>
<circle id="Ellipse 26" cx="148.227" cy="726.227" r="69.4771" fill="#222222" stroke="#222222" stroke-width="1.5"/>
<circle id="Ellipse 165" cx="70.2271" cy="611.227" r="69.4771" stroke="#222222" stroke-width="1.5"/>
<circle id="Ellipse 38" cx="69.8188" cy="175.819" r="69.0688" stroke="#222222" stroke-width="1.5"/>
<circle id="Ellipse 31" cx="230.819" cy="614.819" r="69.0688" stroke="#222222" stroke-width="1.5"/>
<path id="Ellipse 43" d="M221.888 499.635C221.888 538.24 190.956 569.521 152.819 569.521C114.681 569.521 83.75 538.24 83.75 499.635C83.75 461.03 114.681 429.75 152.819 429.75C190.956 429.75 221.888 461.03 221.888 499.635Z" stroke="#222222" stroke-width="1.5"/>
<path id="Ellipse 48" d="M138.888 387.635C138.888 426.24 107.956 457.521 69.8188 457.521C31.6813 457.521 0.75 426.24 0.75 387.635C0.75 349.03 31.6813 317.75 69.8188 317.75C107.956 317.75 138.888 349.03 138.888 387.635Z" fill="#222222" stroke="#222222" stroke-width="1.5"/>
<path id="Ellipse 41" d="M562.704 292.819C562.704 330.96 531.602 361.888 493.227 361.888C454.852 361.888 423.75 330.96 423.75 292.819C423.75 254.677 454.852 223.75 493.227 223.75C531.602 223.75 562.704 254.677 562.704 292.819Z" fill="#222222" stroke="#222222" stroke-width="1.5"/>
<path id="Ellipse 47" d="M276.704 150.819C276.704 188.96 245.602 219.888 207.227 219.888C168.852 219.888 137.75 188.96 137.75 150.819C137.75 112.677 168.852 81.75 207.227 81.75C245.602 81.75 276.704 112.677 276.704 150.819Z" fill="#222222" stroke="#222222" stroke-width="1.5"/>
<circle id="Ellipse 29" cx="497.446" cy="906.181" r="69.0688" stroke="#222222" stroke-width="1.5"/>
<circle id="Ellipse 27" cx="296.227" cy="257.227" r="69.4771" stroke="#222222" stroke-width="1.5"/>
<path id="Ellipse 32" d="M262.071 905.819C262.071 943.969 231.326 974.888 193.41 974.888C155.494 974.888 124.75 943.969 124.75 905.819C124.75 867.669 155.494 836.75 193.41 836.75C231.326 836.75 262.071 867.669 262.071 905.819Z" stroke="#222222" stroke-width="1.5"/>
<path id="Ellipse 33" d="M516.704 559.819C516.704 597.96 485.602 628.888 447.227 628.888C408.852 628.888 377.75 597.96 377.75 559.819C377.75 521.677 408.852 490.75 447.227 490.75C485.602 490.75 516.704 521.677 516.704 559.819Z" stroke="#222222" stroke-width="1.5"/>
<path id="Ellipse 24" d="M483.071 794.227C483.071 832.606 452.322 863.704 414.41 863.704C376.499 863.704 345.75 832.606 345.75 794.227C345.75 755.848 376.499 724.75 414.41 724.75C452.322 724.75 483.071 755.848 483.071 794.227Z" stroke="#222222" stroke-width="1.5"/>
<circle id="Ellipse 25" cx="277.077" cy="779.077" r="69.1603" transform="rotate(-52.2543 277.077 779.077)" stroke="#222222" stroke-width="1.5"/>
<path id="Ellipse 23" d="M401.704 905.819C401.704 943.96 370.602 974.888 332.227 974.888C293.852 974.888 262.75 943.96 262.75 905.819C262.75 867.677 293.852 836.75 332.227 836.75C370.602 836.75 401.704 867.677 401.704 905.819Z" fill="#222222" stroke="#222222" stroke-width="1.5"/>
<path id="Ellipse 166" d="M572.454 75.8188C572.454 113.821 541.466 144.638 503.227 144.638C464.989 144.638 434 113.821 434 75.8188C434 37.8167 464.989 7 503.227 7C541.466 7 572.454 37.8167 572.454 75.8188Z" stroke="#222222" stroke-width="2"/>
</g>
<defs>
<clipPath id="clip0_1896_2579">
<rect width="573" height="982" fill="white"/>
</clipPath>
</defs>
</svg>
