<svg width="573" height="982" viewBox="0 0 573 982" fill="none" xmlns="http://www.w3.org/2000/svg">
<g id="DEMOGRAPHIC_BipocEducators_White" clip-path="url(#clip0_1896_2683)">
<circle id="Ellipse 18" cx="70.5875" cy="841.819" r="69.0688" transform="rotate(12.8192 70.5875 841.819)" fill="#F5F5F5" stroke="#F5F5F5" stroke-width="1.5"/>
<circle id="Ellipse 46" cx="377.819" cy="369.819" r="69.0688" stroke="#F5F5F5" stroke-width="1.5"/>
<circle id="Ellipse 20" cx="358.819" cy="666.819" r="69.0688" stroke="#F5F5F5" stroke-width="1.5"/>
<path id="Ellipse 19" d="M572.521 432.227C572.521 470.594 541.236 501.704 502.635 501.704C464.035 501.704 432.75 470.594 432.75 432.227C432.75 393.86 464.035 362.75 502.635 362.75C541.236 362.75 572.521 393.86 572.521 432.227Z" stroke="#F5F5F5" stroke-width="1.5"/>
<circle id="Ellipse 39" cx="412.819" cy="179.818" r="69.0688" transform="rotate(14.6254 412.819 179.818)" fill="#F5F5F5" stroke="#F5F5F5" stroke-width="1.5"/>
<path id="Ellipse 37" d="M227.888 281.41C227.888 319.326 196.969 350.071 158.819 350.071C120.669 350.071 89.75 319.326 89.75 281.41C89.75 243.494 120.669 212.75 158.819 212.75C196.969 212.75 227.888 243.494 227.888 281.41Z" stroke="#F5F5F5" stroke-width="1.5"/>
<path id="Ellipse 44" d="M382.254 533.793C367.446 568.942 326.777 585.369 291.412 570.47C256.047 555.571 239.392 514.995 254.2 479.845C269.008 444.696 309.677 428.269 345.042 443.168C380.407 458.067 397.062 498.643 382.254 533.793Z" fill="#F5F5F5" stroke="#F5F5F5" stroke-width="1.5"/>
<path id="Ellipse 42" d="M309.888 392.41C309.888 430.326 278.969 461.071 240.819 461.071C202.669 461.071 171.75 430.326 171.75 392.41C171.75 354.494 202.669 323.75 240.819 323.75C278.969 323.75 309.888 354.494 309.888 392.41Z" stroke="#F5F5F5" stroke-width="1.5"/>
<path id="Ellipse 30" d="M569.888 687.41C569.888 725.326 538.969 756.071 500.819 756.071C462.669 756.071 431.75 725.326 431.75 687.41C431.75 649.494 462.669 618.75 500.819 618.75C538.969 618.75 569.888 649.494 569.888 687.41Z" fill="#F5F5F5" stroke="#F5F5F5" stroke-width="1.5"/>
<circle id="Ellipse 26" cx="148.227" cy="726.227" r="69.4771" transform="rotate(-9.65011 148.227 726.227)" fill="#F5F5F5" stroke="#F5F5F5" stroke-width="1.5"/>
<circle id="Ellipse 165" cx="70.2271" cy="611.227" r="69.4771" stroke="#F5F5F5" stroke-width="1.5"/>
<circle id="Ellipse 38" cx="69.8188" cy="175.819" r="69.0688" stroke="#F5F5F5" stroke-width="1.5"/>
<circle id="Ellipse 31" cx="230.819" cy="614.819" r="69.0688" stroke="#F5F5F5" stroke-width="1.5"/>
<path id="Ellipse 43" d="M221.888 499.635C221.888 538.24 190.956 569.521 152.819 569.521C114.681 569.521 83.75 538.24 83.75 499.635C83.75 461.03 114.681 429.75 152.819 429.75C190.956 429.75 221.888 461.03 221.888 499.635Z" stroke="#F5F5F5" stroke-width="1.5"/>
<path id="Ellipse 48" d="M136.684 370.327C146.358 407.7 124.252 445.734 87.3316 455.291C50.411 464.848 12.6279 442.317 2.9538 404.944C-6.72032 367.571 15.3854 329.537 52.306 319.98C89.2265 310.423 127.01 332.954 136.684 370.327Z" fill="#F5F5F5" stroke="#F5F5F5" stroke-width="1.5"/>
<path id="Ellipse 41" d="M562.704 292.819C562.704 330.96 531.602 361.888 493.227 361.888C454.852 361.888 423.75 330.96 423.75 292.819C423.75 254.677 454.852 223.75 493.227 223.75C531.602 223.75 562.704 254.677 562.704 292.819Z" fill="#F5F5F5" stroke="#F5F5F5" stroke-width="1.5"/>
<path id="Ellipse 47" d="M273.814 134.722C282.65 171.826 259.559 209.117 222.228 218.008C184.897 226.898 147.476 204.017 138.64 166.914C129.804 129.81 152.895 92.5185 190.226 83.6282C227.557 74.7379 264.978 97.6185 273.814 134.722Z" fill="#F5F5F5" stroke="#F5F5F5" stroke-width="1.5"/>
<circle id="Ellipse 29" cx="497.446" cy="906.181" r="69.0688" stroke="#F5F5F5" stroke-width="1.5"/>
<circle id="Ellipse 27" cx="296.227" cy="257.227" r="69.4771" stroke="#F5F5F5" stroke-width="1.5"/>
<path id="Ellipse 32" d="M262.071 905.819C262.071 943.969 231.326 974.888 193.41 974.888C155.494 974.888 124.75 943.969 124.75 905.819C124.75 867.669 155.494 836.75 193.41 836.75C231.326 836.75 262.071 867.669 262.071 905.819Z" stroke="#F5F5F5" stroke-width="1.5"/>
<path id="Ellipse 33" d="M516.704 559.819C516.704 597.96 485.602 628.888 447.227 628.888C408.852 628.888 377.75 597.96 377.75 559.819C377.75 521.677 408.852 490.75 447.227 490.75C485.602 490.75 516.704 521.677 516.704 559.819Z" stroke="#F5F5F5" stroke-width="1.5"/>
<path id="Ellipse 24" d="M483.071 794.227C483.071 832.606 452.322 863.704 414.41 863.704C376.499 863.704 345.75 832.606 345.75 794.227C345.75 755.848 376.499 724.75 414.41 724.75C452.322 724.75 483.071 755.848 483.071 794.227Z" stroke="#F5F5F5" stroke-width="1.5"/>
<circle id="Ellipse 25" cx="277.077" cy="779.077" r="69.1603" transform="rotate(-52.2543 277.077 779.077)" stroke="#F5F5F5" stroke-width="1.5"/>
<path id="Ellipse 23" d="M400.237 891.253C408.232 928.547 384.305 965.307 346.783 973.352C309.26 981.397 272.366 957.677 264.37 920.384C256.374 883.09 280.301 846.329 317.824 838.284C355.346 830.239 392.241 853.959 400.237 891.253Z" fill="#F5F5F5" stroke="#F5F5F5" stroke-width="1.5"/>
<path id="Ellipse 166" d="M572.454 75.8188C572.454 113.821 541.466 144.638 503.227 144.638C464.989 144.638 434 113.821 434 75.8188C434 37.8167 464.989 7 503.227 7C541.466 7 572.454 37.8167 572.454 75.8188Z" stroke="#F5F5F5" stroke-width="2"/>
<g id="Group 380">
<g id="22 y/o Female Black/African Am. Intern">
<text transform="translate(164.376 97.3164) rotate(16.3201)" fill="#222222" xml:space="preserve" style="white-space: pre" font-family="Sentient" font-size="12" letter-spacing="0em"><tspan x="54" y="53.84">&#10;</tspan></text>
<text transform="translate(164.376 97.3164) rotate(16.3201)" fill="#222222" xml:space="preserve" style="white-space: pre" font-family="Sentient" font-size="12" letter-spacing="0em"><tspan x="36.9551" y="11.84">22 y/o&#10;</tspan><tspan x="32.7539" y="27.84">Female&#10;</tspan><tspan x="0.375" y="43.84">Black/African Am.&#10;</tspan></text>
<text transform="translate(164.376 97.3164) rotate(16.3201)" fill="#222222" xml:space="preserve" style="white-space: pre" font-family="Sentient" font-size="12" letter-spacing="0em"><tspan x="36.1992" y="69.84">Intern</tspan></text>
</g>
<path id="Vector 360" d="M188.739 160.717L214.651 168.304" stroke="#222222" stroke-width="0.5"/>
</g>
<g id="Group 383">
<g id="49 y/o Female Asian Professor">
<text transform="translate(34.6407 355.885) rotate(-14.4118)" fill="#222222" xml:space="preserve" style="white-space: pre" font-family="Sentient" font-size="12" letter-spacing="0em"><tspan x="27" y="53.84">&#10;</tspan></text>
<text transform="translate(34.6407 355.885) rotate(-14.4118)" fill="#222222" xml:space="preserve" style="white-space: pre" font-family="Sentient" font-size="12" letter-spacing="0em"><tspan x="9.375" y="11.84">49 y/o&#10;</tspan><tspan x="5.75391" y="27.84">Female&#10;</tspan><tspan x="10.5527" y="43.84">Asian&#10;</tspan></text>
<text transform="translate(34.6407 355.885) rotate(-14.4118)" fill="#222222" xml:space="preserve" style="white-space: pre" font-family="Sentient" font-size="12" letter-spacing="0em"><tspan x="0.123047" y="69.84">Professor</tspan></text>
</g>
<path id="Vector 354" d="M61.6403 404.701L87.7906 397.981" stroke="#222222" stroke-width="0.5"/>
</g>
<g id="Group 382">
<g id="28 y/o Male Asian Mid-level Designer">
<text transform="translate(432.171 273.688) rotate(-20.1438)" fill="#222222" xml:space="preserve" style="white-space: pre" font-family="Sentient" font-size="12" letter-spacing="0em"><tspan x="53.5" y="53.84">&#10;</tspan></text>
<text transform="translate(432.171 273.688) rotate(-20.1438)" fill="#222222" xml:space="preserve" style="white-space: pre" font-family="Sentient" font-size="12" letter-spacing="0em"><tspan x="36.1504" y="11.84">28 y/o&#10;</tspan><tspan x="38.9805" y="27.84">Male&#10;</tspan><tspan x="37.0527" y="43.84">Asian&#10;</tspan></text>
<text transform="translate(432.171 273.688) rotate(-20.1438)" fill="#222222" xml:space="preserve" style="white-space: pre" font-family="Sentient" font-size="12" letter-spacing="0em"><tspan x="0.332031" y="69.84">Mid-level Designer</tspan></text>
</g>
<path id="Vector 355" d="M489.003 311.425L514.351 302.127" stroke="#222222" stroke-width="0.5"/>
</g>
<g id="Group 381">
<g id="39 y/o Female Bi-/Multi-racial Full-time Faculty">
<text transform="translate(286.586 452.244) rotate(22.1713)" fill="#222222" xml:space="preserve" style="white-space: pre" font-family="Sentient" font-size="12" letter-spacing="0em"><tspan x="49" y="53.84">&#10;</tspan></text>
<text transform="translate(286.586 452.244) rotate(22.1713)" fill="#222222" xml:space="preserve" style="white-space: pre" font-family="Sentient" font-size="12" letter-spacing="0em"><tspan x="31.6562" y="11.84">39 y/o&#10;</tspan><tspan x="27.7539" y="27.84">Female&#10;</tspan><tspan x="3.11523" y="43.84">Bi-/Multi-racial&#10;</tspan></text>
<text transform="translate(286.586 452.244) rotate(22.1713)" fill="#222222" xml:space="preserve" style="white-space: pre" font-family="Sentient" font-size="12" letter-spacing="0em"><tspan x="0.361328" y="69.84">Full-time Faculty</tspan></text>
</g>
<path id="Vector 355_2" d="M299.168 516.763L324.172 526.952" stroke="#222222" stroke-width="0.5"/>
</g>
<g id="Group 386">
<g id="49 y/o Female Asian Design Lead">
<text transform="translate(45.7468 794.771) rotate(13.6844)" fill="#222222" xml:space="preserve" style="white-space: pre" font-family="Sentient" font-size="12" letter-spacing="0em"><tspan x="35" y="53.84">&#10;</tspan></text>
<text transform="translate(45.7468 794.771) rotate(13.6844)" fill="#222222" xml:space="preserve" style="white-space: pre" font-family="Sentient" font-size="12" letter-spacing="0em"><tspan x="17.375" y="11.84">49 y/o&#10;</tspan><tspan x="13.7539" y="27.84">Female&#10;</tspan><tspan x="18.5527" y="43.84">Asian&#10;</tspan></text>
<text transform="translate(45.7468 794.771) rotate(13.6844)" fill="#222222" xml:space="preserve" style="white-space: pre" font-family="Sentient" font-size="12" letter-spacing="0em"><tspan x="0.488281" y="69.84">Design Lead</tspan></text>
</g>
<path id="Vector 354_2" d="M53.8743 854.386L80.1078 860.773" stroke="#222222" stroke-width="0.5"/>
</g>
<g id="Group 385">
<g id="36 y/o Female Black Adjunct Professor">
<text transform="translate(309.466 846.159) rotate(33.0846)" fill="#222222" xml:space="preserve" style="white-space: pre" font-family="Sentient" font-size="12" letter-spacing="0em"><tspan x="51" y="53.84">&#10;</tspan></text>
<text transform="translate(309.466 846.159) rotate(33.0846)" fill="#222222" xml:space="preserve" style="white-space: pre" font-family="Sentient" font-size="12" letter-spacing="0em"><tspan x="33.5977" y="11.84">36 y/o&#10;</tspan><tspan x="29.7539" y="27.84">Female&#10;</tspan><tspan x="34.7461" y="43.84">Black&#10;</tspan></text>
<text transform="translate(309.466 846.159) rotate(33.0846)" fill="#222222" xml:space="preserve" style="white-space: pre" font-family="Sentient" font-size="12" letter-spacing="0em"><tspan x="0.246094" y="69.84">Adjunct Professor</tspan></text>
</g>
<path id="Vector 355_3" d="M310.444 912.439L333.066 927.178" stroke="#222222" stroke-width="0.5"/>
</g>
<g id="Group 384">
<g id="30 y/o Female Bi-/Multi-racial Senior Designer">
<text transform="translate(443.905 669.996) rotate(-24.0875)" fill="#222222" xml:space="preserve" style="white-space: pre" font-family="Sentient" font-size="12" letter-spacing="0em"><tspan x="46" y="53.84">&#10;</tspan></text>
<text transform="translate(443.905 669.996) rotate(-24.0875)" fill="#222222" xml:space="preserve" style="white-space: pre" font-family="Sentient" font-size="12" letter-spacing="0em"><tspan x="28.4395" y="11.84">30 y/o&#10;</tspan><tspan x="24.7539" y="27.84">Female&#10;</tspan><tspan x="0.115234" y="43.84">Bi-/Multi-racial&#10;</tspan></text>
<text transform="translate(443.905 669.996) rotate(-24.0875)" fill="#222222" xml:space="preserve" style="white-space: pre" font-family="Sentient" font-size="12" letter-spacing="0em"><tspan x="1.08203" y="69.84">Senior Designer</tspan></text>
</g>
<path id="Vector 356" d="M496.07 705.825L520.719 694.806" stroke="#222222" stroke-width="0.5"/>
</g>
</g>
<defs>
<clipPath id="clip0_1896_2683">
<rect width="573" height="982" fill="white"/>
</clipPath>
</defs>
</svg>
