<svg width="573" height="982" viewBox="0 0 573 982" fill="none" xmlns="http://www.w3.org/2000/svg">
<g id="COMPENSATION_YouthUnsatisfied_White" clip-path="url(#clip0_1896_2916)">
<circle id="Ellipse 46" cx="70.8188" cy="905.819" r="68.8188" fill="#F5F5F5" stroke="#F5F5F5" stroke-width="2"/>
<path id="Ellipse 37" d="M152.638 768.41C152.638 806.187 121.832 836.821 83.8188 836.821C45.8057 836.821 15 806.187 15 768.41C15 730.634 45.8057 700 83.8188 700C121.832 700 152.638 730.634 152.638 768.41Z" stroke="#F5F5F5" stroke-width="2"/>
<path id="Ellipse 42" d="M571.638 769.41C571.638 807.187 540.832 837.821 502.819 837.821C464.806 837.821 434 807.187 434 769.41C434 731.634 464.806 701 502.819 701C540.832 701 571.638 731.634 571.638 769.41Z" fill="#F5F5F5" stroke="#F5F5F5" stroke-width="2"/>
<circle id="Ellipse 39" cx="320.819" cy="369.819" r="68.8188" fill="#F5F5F5" stroke="#F5F5F5" stroke-width="2"/>
<path id="Ellipse 32" d="M527.821 368.819C527.821 406.832 497.187 437.638 459.41 437.638C421.634 437.638 391 406.832 391 368.819C391 330.806 421.634 300 459.41 300C497.187 300 527.821 330.806 527.821 368.819Z" stroke="#F5F5F5" stroke-width="2"/>
<circle id="Ellipse 18" cx="502.819" cy="500.819" r="68.8188" fill="#F5F5F5" stroke="#F5F5F5" stroke-width="2"/>
<circle id="Ellipse 20" cx="198.819" cy="578.819" r="68.8188" stroke="#F5F5F5" stroke-width="2"/>
<path id="Ellipse 19" d="M162.271 212.227C162.271 250.455 131.099 281.454 92.6354 281.454C54.1713 281.454 23 250.455 23 212.227C23 173.999 54.1713 143 92.6354 143C131.099 143 162.271 173.999 162.271 212.227Z" stroke="#F5F5F5" stroke-width="2"/>
<path id="Ellipse 44" d="M269.454 439.819C269.454 477.821 238.466 508.638 200.227 508.638C161.989 508.638 131 477.821 131 439.819C131 401.817 161.989 371 200.227 371C238.466 371 269.454 401.817 269.454 439.819Z" stroke="#F5F5F5" stroke-width="2"/>
<path id="Ellipse 30" d="M394.638 636.41C394.638 674.187 363.832 704.821 325.819 704.821C287.806 704.821 257 674.187 257 636.41C257 598.634 287.806 568 325.819 568C363.832 568 394.638 598.634 394.638 636.41Z" fill="#F5F5F5" stroke="#F5F5F5" stroke-width="2"/>
<circle id="Ellipse 26" cx="342.227" cy="231.227" r="69.2271" stroke="#F5F5F5" stroke-width="2"/>
<circle id="Ellipse 165" cx="332.227" cy="905.227" r="69.2271" fill="#F5F5F5" stroke="#F5F5F5" stroke-width="2"/>
<circle id="Ellipse 38" cx="212.819" cy="282.819" r="68.8188" stroke="#F5F5F5" stroke-width="2"/>
<circle id="Ellipse 31" cx="69.8188" cy="629.819" r="68.8188" fill="#F5F5F5" stroke="#F5F5F5" stroke-width="2"/>
<path id="Ellipse 43" d="M160.638 352.635C160.638 391.105 129.815 422.271 91.8188 422.271C53.8221 422.271 23 391.105 23 352.635C23 314.166 53.8221 283 91.8188 283C129.815 283 160.638 314.166 160.638 352.635Z" stroke="#F5F5F5" stroke-width="2"/>
<path id="Ellipse 48" d="M540.638 905.635C540.638 944.105 509.815 975.271 471.819 975.271C433.822 975.271 403 944.105 403 905.635C403 867.166 433.822 836 471.819 836C509.815 836 540.638 867.166 540.638 905.635Z" stroke="#F5F5F5" stroke-width="2"/>
<path id="Ellipse 41" d="M496.454 120.819C496.454 158.821 465.466 189.638 427.227 189.638C388.989 189.638 358 158.821 358 120.819C358 82.8167 388.989 52 427.227 52C465.466 52 496.454 82.8167 496.454 120.819Z" stroke="#F5F5F5" stroke-width="2"/>
<path id="Ellipse 47" d="M139.454 490.819C139.454 528.821 108.466 559.638 70.2271 559.638C31.9885 559.638 1 528.821 1 490.819C1 452.817 31.9885 422 70.2271 422C108.466 422 139.454 452.817 139.454 490.819Z" stroke="#F5F5F5" stroke-width="2"/>
<circle id="Ellipse 29" cx="363.819" cy="769.819" r="68.8188" fill="#F5F5F5" stroke="#F5F5F5" stroke-width="2"/>
<circle id="Ellipse 27" cx="466.227" cy="635.227" r="69.2271" stroke="#F5F5F5" stroke-width="2"/>
<path id="Ellipse 33" d="M432.454 501.819C432.454 539.821 401.466 570.638 363.227 570.638C324.989 570.638 294 539.821 294 501.819C294 463.817 324.989 433 363.227 433C401.466 433 432.454 463.817 432.454 501.819Z" stroke="#F5F5F5" stroke-width="2"/>
<path id="Ellipse 24" d="M570.821 237.227C570.821 275.471 540.182 306.454 502.41 306.454C464.639 306.454 434 275.471 434 237.227C434 198.983 464.639 168 502.41 168C540.182 168 570.821 198.983 570.821 237.227Z" stroke="#F5F5F5" stroke-width="2"/>
<circle id="Ellipse 25" cx="213.077" cy="718.076" r="68.9103" transform="rotate(-52.2543 213.077 718.076)" fill="#F5F5F5" stroke="#F5F5F5" stroke-width="2"/>
<path id="Ellipse 23" d="M270.454 855.819C270.454 893.821 239.466 924.638 201.227 924.638C162.989 924.638 132 893.821 132 855.819C132 817.817 162.989 787 201.227 787C239.466 787 270.454 817.817 270.454 855.819Z" stroke="#F5F5F5" stroke-width="2"/>
<path id="Ellipse 166" d="M283.454 141.819C283.454 179.821 252.466 210.638 214.227 210.638C175.989 210.638 145 179.821 145 141.819C145 103.817 175.989 73 214.227 73C252.466 73 283.454 103.817 283.454 141.819Z" stroke="#F5F5F5" stroke-width="2"/>
<g id="Group 355">
<g id="23 y/o Female Latinx/Hispanic Junior Designer">
<text transform="translate(287.048 317.798) rotate(18.3031)" fill="#222222" xml:space="preserve" style="white-space: pre" font-family="Sentient" font-size="12" letter-spacing="0em"><tspan x="31.0547" y="11.84">23 y/o&#10;</tspan><tspan x="26.7539" y="27.84">Female&#10;</tspan><tspan x="0.398438" y="43.84">Latinx/Hispanic&#10;</tspan></text>
<text transform="translate(287.048 317.798) rotate(18.3031)" fill="#222222" xml:space="preserve" style="white-space: pre" font-family="Sentient" font-size="12" letter-spacing="0em"><tspan x="46.5586" y="53.84"> &#10;</tspan></text>
<text transform="translate(287.048 317.798) rotate(18.3031)" fill="#222222" xml:space="preserve" style="white-space: pre" font-family="Sentient" font-size="12" letter-spacing="0em"><tspan x="3.89062" y="69.84">Junior Designer</tspan></text>
</g>
<path id="Vector 353" d="M302.118 380.119L327.752 388.598" stroke="#222222" stroke-width="0.5"/>
</g>
<g id="Group 365">
<g id="24 y/o Female White/Caucasian Mid-level Designer">
<text transform="translate(444.236 473.515) rotate(-12.5555)" fill="#222222" xml:space="preserve" style="white-space: pre" font-family="Sentient" font-size="12" letter-spacing="0em"><tspan x="36.2324" y="11.84">24 y/o&#10;</tspan><tspan x="32.2539" y="27.84">Female&#10;</tspan><tspan x="3.17383" y="43.84">White/Caucasian&#10;</tspan></text>
<text transform="translate(444.236 473.515) rotate(-12.5555)" fill="#222222" xml:space="preserve" style="white-space: pre" font-family="Sentient" font-size="12" letter-spacing="0em"><tspan x="52.0586" y="53.84"> &#10;</tspan></text>
<text transform="translate(444.236 473.515) rotate(-12.5555)" fill="#222222" xml:space="preserve" style="white-space: pre" font-family="Sentient" font-size="12" letter-spacing="0em"><tspan x="0.332031" y="69.84">Mid-level Designer</tspan></text>
</g>
<path id="Vector 353_2" d="M493.066 517.963L519.42 512.094" stroke="#222222" stroke-width="0.5"/>
</g>
<g id="Group 356">
<g id="33 y/o Male White/Caucasian Senior Designer">
<text transform="translate(286.539 585.809) rotate(14.1047)" fill="#222222" xml:space="preserve" style="white-space: pre" font-family="Sentient" font-size="12" letter-spacing="0em"><tspan x="33.6543" y="11.84">33 y/o&#10;</tspan><tspan x="35.9805" y="27.84">Male&#10;</tspan><tspan x="0.173828" y="43.84">White/Caucasian&#10;</tspan></text>
<text transform="translate(286.539 585.809) rotate(14.1047)" fill="#222222" xml:space="preserve" style="white-space: pre" font-family="Sentient" font-size="12" letter-spacing="0em"><tspan x="5.58203" y="69.84">Senior Designer</tspan></text>
<text transform="translate(286.539 585.809) rotate(14.1047)" fill="#222222" xml:space="preserve" style="white-space: pre" font-family="Sentient" font-size="12" letter-spacing="0em"><tspan x="49.0586" y="53.84"> &#10;</tspan></text>
</g>
<path id="Vector 354" d="M308.294 646.954L334.48 653.534" stroke="#222222" stroke-width="0.5"/>
</g>
<g id="Group 357">
<g id="22 y/o Male White/Caucasian Junior Designer">
<text transform="translate(157.248 687.524) rotate(-10.1965)" fill="#222222" xml:space="preserve" style="white-space: pre" font-family="Sentient" font-size="12" letter-spacing="0em"><tspan x="33.4551" y="11.84">22 y/o&#10;</tspan><tspan x="35.9805" y="27.84">Male&#10;</tspan><tspan x="0.173828" y="43.84">White/Caucasian&#10;</tspan></text>
<text transform="translate(157.248 687.524) rotate(-10.1965)" fill="#222222" xml:space="preserve" style="white-space: pre" font-family="Sentient" font-size="12" letter-spacing="0em"><tspan x="49.0586" y="53.84"> &#10;</tspan></text>
<text transform="translate(157.248 687.524) rotate(-10.1965)" fill="#222222" xml:space="preserve" style="white-space: pre" font-family="Sentient" font-size="12" letter-spacing="0em"><tspan x="6.39062" y="69.84">Junior Designer</tspan></text>
</g>
<path id="Vector 354_2" d="M202.238 734.299L228.812 729.519" stroke="#222222" stroke-width="0.5"/>
</g>
<g id="Group 359">
<g id="25 y/o Female Asian Mid-level Designer">
<text transform="translate(271.5 883.322) rotate(-17.0587)" fill="#222222" xml:space="preserve" style="white-space: pre" font-family="Sentient" font-size="12" letter-spacing="0em"><tspan x="36.5957" y="11.84">25 y/o&#10;</tspan><tspan x="32.2539" y="27.84">Female&#10;</tspan><tspan x="37.0527" y="43.84">Asian&#10;</tspan></text>
<text transform="translate(271.5 883.322) rotate(-17.0587)" fill="#222222" xml:space="preserve" style="white-space: pre" font-family="Sentient" font-size="12" letter-spacing="0em"><tspan x="52.0586" y="53.84"> &#10;</tspan></text>
<text transform="translate(271.5 883.322) rotate(-17.0587)" fill="#222222" xml:space="preserve" style="white-space: pre" font-family="Sentient" font-size="12" letter-spacing="0em"><tspan x="0.332031" y="69.84">Mid-level Designer</tspan></text>
</g>
<path id="Vector 354_3" d="M325.581 923.213L351.393 915.292" stroke="#222222" stroke-width="0.5"/>
</g>
<g id="Group 358">
<g id="22 y/o Female Asian Junior Designer">
<text transform="translate(19 597.896) rotate(-10.9432)" fill="#222222" xml:space="preserve" style="white-space: pre" font-family="Sentient" font-size="12" letter-spacing="0em"><tspan x="27.4551" y="11.84">22 y/o&#10;</tspan><tspan x="23.2539" y="27.84">Female&#10;</tspan><tspan x="28.0527" y="43.84">Asian&#10;</tspan></text>
<text transform="translate(19 597.896) rotate(-10.9432)" fill="#222222" xml:space="preserve" style="white-space: pre" font-family="Sentient" font-size="12" letter-spacing="0em"><tspan x="43.0586" y="53.84"> &#10;</tspan></text>
<text transform="translate(19 597.896) rotate(-10.9432)" fill="#222222" xml:space="preserve" style="white-space: pre" font-family="Sentient" font-size="12" letter-spacing="0em"><tspan x="0.390625" y="69.84">Junior Designer</tspan></text>
</g>
<path id="Vector 355" d="M58.7056 645.219L85.2146 640.093" stroke="#222222" stroke-width="0.5"/>
</g>
</g>
<defs>
<clipPath id="clip0_1896_2916">
<rect width="573" height="982" fill="white"/>
</clipPath>
</defs>
</svg>
