<svg width="573" height="982" viewBox="0 0 573 982" fill="none" xmlns="http://www.w3.org/2000/svg">
<g id="COMPENSATION_BigCity_White" clip-path="url(#clip0_1896_2995)">
<circle id="Ellipse 18" cx="70.8188" cy="905.819" r="68.8188" fill="#F5F5F5" stroke="#F5F5F5" stroke-width="2"/>
<circle id="Ellipse 46" cx="415.819" cy="273.819" r="68.8188" stroke="#F5F5F5" stroke-width="2"/>
<circle id="Ellipse 20" cx="360.819" cy="629.819" r="68.8188" fill="#F5F5F5" stroke="#F5F5F5" stroke-width="2"/>
<path id="Ellipse 19" d="M571.271 384.227C571.271 422.455 540.099 453.454 501.635 453.454C463.171 453.454 432 422.455 432 384.227C432 345.999 463.171 315 501.635 315C540.099 315 571.271 345.999 571.271 384.227Z" fill="#F5F5F5" stroke="#F5F5F5" stroke-width="2"/>
<circle id="Ellipse 39" cx="349.819" cy="396.819" r="68.8188" fill="#F5F5F5" stroke="#F5F5F5" stroke-width="2"/>
<path id="Ellipse 21" d="M138.821 719.227C138.821 757.471 108.182 788.454 70.4105 788.454C32.6394 788.454 2 757.471 2 719.227C2 680.983 32.6394 650 70.4105 650C108.182 650 138.821 680.983 138.821 719.227Z" fill="#F5F5F5" stroke="#F5F5F5" stroke-width="2"/>
<path id="Ellipse 37" d="M415.638 154.41C415.638 192.187 384.832 222.821 346.819 222.821C308.806 222.821 278 192.187 278 154.41C278 116.634 308.806 86 346.819 86C384.832 86 415.638 116.634 415.638 154.41Z" fill="#F5F5F5" stroke="#F5F5F5" stroke-width="2"/>
<path id="Ellipse 44" d="M344.454 519.819C344.454 557.821 313.466 588.638 275.227 588.638C236.989 588.638 206 557.821 206 519.819C206 481.817 236.989 451 275.227 451C313.466 451 344.454 481.817 344.454 519.819Z" fill="#F5F5F5" stroke="#F5F5F5" stroke-width="2"/>
<path id="Ellipse 42" d="M299.638 324.41C299.638 362.187 268.832 392.821 230.819 392.821C192.806 392.821 162 362.187 162 324.41C162 286.634 192.806 256 230.819 256C268.832 256 299.638 286.634 299.638 324.41Z" stroke="#F5F5F5" stroke-width="2"/>
<path id="Ellipse 30" d="M571.638 631.41C571.638 669.187 540.832 699.821 502.819 699.821C464.806 699.821 434 669.187 434 631.41C434 593.634 464.806 563 502.819 563C540.832 563 571.638 593.634 571.638 631.41Z" stroke="#F5F5F5" stroke-width="2"/>
<circle id="Ellipse 26" cx="201.227" cy="767.227" r="69.2271" fill="#F5F5F5" stroke="#F5F5F5" stroke-width="2"/>
<circle id="Ellipse 38" cx="69.8188" cy="334.819" r="68.8188" fill="#F5F5F5" stroke="#F5F5F5" stroke-width="2"/>
<circle id="Ellipse 31" cx="187.819" cy="627.819" r="68.8188" fill="#F5F5F5" stroke="#F5F5F5" stroke-width="2"/>
<path id="Ellipse 43" d="M139.638 552.635C139.638 591.105 108.815 622.271 70.8188 622.271C32.8221 622.271 2 591.105 2 552.635C2 514.166 32.8221 483 70.8188 483C108.815 483 139.638 514.166 139.638 552.635Z" stroke="#F5F5F5" stroke-width="2"/>
<path id="Ellipse 48" d="M226.638 443.635C226.638 482.105 195.815 513.271 157.819 513.271C119.822 513.271 89 482.105 89 443.635C89 405.166 119.822 374 157.819 374C195.815 374 226.638 405.166 226.638 443.635Z" fill="#F5F5F5" stroke="#F5F5F5" stroke-width="2"/>
<path id="Ellipse 41" d="M571.454 164.819C571.454 202.821 540.466 233.638 502.227 233.638C463.989 233.638 433 202.821 433 164.819C433 126.817 463.989 96 502.227 96C540.466 96 571.454 126.817 571.454 164.819Z" stroke="#F5F5F5" stroke-width="2"/>
<path id="Ellipse 47" d="M140.454 195.819C140.454 233.821 109.466 264.638 71.2271 264.638C32.9885 264.638 2 233.821 2 195.819C2 157.817 32.9885 127 71.2271 127C109.466 127 140.454 157.817 140.454 195.819Z" stroke="#F5F5F5" stroke-width="2"/>
<circle id="Ellipse 29" cx="497.446" cy="906.182" r="68.8188" fill="#F5F5F5" stroke="#F5F5F5" stroke-width="2"/>
<circle id="Ellipse 27" cx="211.227" cy="186.227" r="69.2271" stroke="#F5F5F5" stroke-width="2"/>
<path id="Ellipse 32" d="M285.821 905.819C285.821 943.832 255.187 974.638 217.41 974.638C179.634 974.638 149 943.832 149 905.819C149 867.806 179.634 837 217.41 837C255.187 837 285.821 867.806 285.821 905.819Z" stroke="#F5F5F5" stroke-width="2"/>
<path id="Ellipse 33" d="M502.454 510.819C502.454 548.821 471.466 579.638 433.227 579.638C394.989 579.638 364 548.821 364 510.819C364 472.817 394.989 442 433.227 442C471.466 442 502.454 472.817 502.454 510.819Z" stroke="#F5F5F5" stroke-width="2"/>
<path id="Ellipse 24" d="M547.821 768.227C547.821 806.471 517.182 837.454 479.41 837.454C441.639 837.454 411 806.471 411 768.227C411 729.983 441.639 699 479.41 699C517.182 699 547.821 729.983 547.821 768.227Z" fill="#F5F5F5" stroke="#F5F5F5" stroke-width="2"/>
<circle id="Ellipse 25" cx="341.077" cy="768.078" r="68.9103" transform="rotate(-52.2543 341.077 768.078)" stroke="#F5F5F5" stroke-width="2"/>
<path id="Ellipse 23" d="M426.454 906.182C426.454 944.184 395.466 975.001 357.227 975.001C318.989 975.001 288 944.184 288 906.182C288 868.18 318.989 837.363 357.227 837.363C395.466 837.363 426.454 868.18 426.454 906.182Z" fill="#F5F5F5" stroke="#F5F5F5" stroke-width="2"/>
<path id="Ellipse 165" d="M202.638 72.4105C202.638 110.187 171.832 140.821 133.819 140.821C95.8057 140.821 65 110.187 65 72.4105C65 34.6339 95.8057 4 133.819 4C171.832 4 202.638 34.6339 202.638 72.4105Z" stroke="#F5F5F5" stroke-width="2"/>
<g id="Group 367">
<g id="42 y/o Female White/Caucasian Mid-level Designer">
<text transform="translate(438.344 370.264) rotate(-25.1676)" fill="#222222" xml:space="preserve" style="white-space: pre" font-family="Sentient" font-size="12" letter-spacing="0em"><tspan x="36.2148" y="11.84">42 y/o&#10;</tspan><tspan x="32.2539" y="27.84">Female&#10;</tspan><tspan x="3.17383" y="43.84">White/Caucasian&#10;</tspan></text>
<text transform="translate(438.344 370.264) rotate(-25.1676)" fill="#222222" xml:space="preserve" style="white-space: pre" font-family="Sentient" font-size="12" letter-spacing="0em"><tspan x="52.0586" y="53.84"> &#10;</tspan></text>
<text transform="translate(438.344 370.264) rotate(-25.1676)" fill="#222222" xml:space="preserve" style="white-space: pre" font-family="Sentient" font-size="12" letter-spacing="0em"><tspan x="0.332031" y="69.84">Mid-level Designer</tspan></text>
</g>
<path id="Vector 354" d="M497.617 402.094L522.054 390.612" stroke="#222222" stroke-width="0.5"/>
</g>
<g id="Group 372">
<g id="24 y/o Female Latinx/Hispanic Junior Designer">
<text transform="translate(128.374 386.918) rotate(21.0739)" fill="#222222" xml:space="preserve" style="white-space: pre" font-family="Sentient" font-size="12" letter-spacing="0em"><tspan x="30.7324" y="11.84">24 y/o&#10;</tspan><tspan x="26.7539" y="27.84">Female&#10;</tspan><tspan x="0.398438" y="43.84">Latinx/Hispanic&#10;</tspan></text>
<text transform="translate(128.374 386.918) rotate(21.0739)" fill="#222222" xml:space="preserve" style="white-space: pre" font-family="Sentient" font-size="12" letter-spacing="0em"><tspan x="46.5586" y="53.84"> &#10;</tspan></text>
<text transform="translate(128.374 386.918) rotate(21.0739)" fill="#222222" xml:space="preserve" style="white-space: pre" font-family="Sentient" font-size="12" letter-spacing="0em"><tspan x="3.89062" y="69.84">Junior Designer</tspan></text>
</g>
<path id="Vector 354_2" d="M138.841 449.141L164.035 458.849" stroke="#222222" stroke-width="0.5"/>
</g>
<g id="Group 368">
<g id="47 y/o Male Prefer Not to Say Owner">
<text transform="translate(230.109 475.061) rotate(5.95981)" fill="#222222" xml:space="preserve" style="white-space: pre" font-family="Sentient" font-size="12" letter-spacing="0em"><tspan x="32.5781" y="11.84">47 y/o&#10;</tspan><tspan x="34.9805" y="27.84">Male&#10;</tspan><tspan x="0.363281" y="43.84">Prefer Not to Say&#10;</tspan></text>
<text transform="translate(230.109 475.061) rotate(5.95981)" fill="#222222" xml:space="preserve" style="white-space: pre" font-family="Sentient" font-size="12" letter-spacing="0em"><tspan x="30.4219" y="69.84">Owner</tspan></text>
<text transform="translate(230.109 475.061) rotate(5.95981)" fill="#222222" xml:space="preserve" style="white-space: pre" font-family="Sentient" font-size="12" letter-spacing="0em"><tspan x="48.0586" y="53.84"> &#10;</tspan></text>
</g>
<path id="Vector 355" d="M259.619 532.803L286.473 535.606" stroke="#222222" stroke-width="0.5"/>
</g>
<g id="Group 369">
<g id="35 y/o Female White/Caucasian Creative Director">
<text transform="translate(35.4038 665.328) rotate(19.396)" fill="#222222" xml:space="preserve" style="white-space: pre" font-family="Sentient" font-size="12" letter-spacing="0em"><tspan x="2.47656" y="69.84">Creative Director</tspan></text>
<text transform="translate(35.4038 665.328) rotate(19.396)" fill="#222222" xml:space="preserve" style="white-space: pre" font-family="Sentient" font-size="12" letter-spacing="0em"><tspan x="49.0586" y="53.84"> &#10;</tspan></text>
<text transform="translate(35.4038 665.328) rotate(19.396)" fill="#222222" xml:space="preserve" style="white-space: pre" font-family="Sentient" font-size="12" letter-spacing="0em"><tspan x="33.6953" y="11.84">35 y/o&#10;</tspan><tspan x="29.2539" y="27.84">Female&#10;</tspan><tspan x="0.173828" y="43.84">White/Caucasian&#10;</tspan></text>
</g>
<path id="Vector 354_3" d="M52.1348 728.469L77.6024 737.435" stroke="#222222" stroke-width="0.5"/>
</g>
<g id="Group 370">
<g id="27 y/o Female White/Caucasian Owner">
<text transform="translate(427.401 737.211) rotate(-9.87779)" fill="#222222" xml:space="preserve" style="white-space: pre" font-family="Sentient" font-size="12" letter-spacing="0em"><tspan x="31.4219" y="69.84">Owner</tspan></text>
<text transform="translate(427.401 737.211) rotate(-9.87779)" fill="#222222" xml:space="preserve" style="white-space: pre" font-family="Sentient" font-size="12" letter-spacing="0em"><tspan x="33.7773" y="11.84">27 y/o&#10;</tspan><tspan x="29.2539" y="27.84">Female&#10;</tspan><tspan x="0.173828" y="43.84">White/Caucasian&#10;</tspan></text>
<text transform="translate(427.401 737.211) rotate(-9.87779)" fill="#222222" xml:space="preserve" style="white-space: pre" font-family="Sentient" font-size="12" letter-spacing="0em"><tspan x="49.0586" y="53.84"> &#10;</tspan></text>
</g>
<path id="Vector 355_2" d="M473.116 784.062L499.716 779.431" stroke="#222222" stroke-width="0.5"/>
</g>
<g id="Group 371">
<g id="25 y/o Female Asian Junior Designer">
<text transform="translate(328.607 853.445) rotate(19.1582)" fill="#222222" xml:space="preserve" style="white-space: pre" font-family="Sentient" font-size="12" letter-spacing="0em"><tspan x="0.390625" y="69.84">Junior Designer</tspan></text>
<text transform="translate(328.607 853.445) rotate(19.1582)" fill="#222222" xml:space="preserve" style="white-space: pre" font-family="Sentient" font-size="12" letter-spacing="0em"><tspan x="27.5957" y="11.84">25 y/o&#10;</tspan><tspan x="23.2539" y="27.84">Female&#10;</tspan><tspan x="28.0527" y="43.84">Asian&#10;</tspan></text>
<text transform="translate(328.607 853.445) rotate(19.1582)" fill="#222222" xml:space="preserve" style="white-space: pre" font-family="Sentient" font-size="12" letter-spacing="0em"><tspan x="43.0586" y="53.84"> &#10;</tspan></text>
</g>
<path id="Vector 355_3" d="M340.169 914.629L365.673 923.49" stroke="#222222" stroke-width="0.5"/>
</g>
</g>
<defs>
<clipPath id="clip0_1896_2995">
<rect width="573" height="982" fill="white"/>
</clipPath>
</defs>
</svg>
