<svg width="573" height="982" viewBox="0 0 573 982" fill="none" xmlns="http://www.w3.org/2000/svg">
<g id="DEMOGRAPHIC_FemaleAutonomy_White" clip-path="url(#clip0_1896_2734)">
<circle id="Ellipse 18" cx="70.8188" cy="905.819" r="69.0022" fill="#F5F5F5" stroke="#F5F5F5" stroke-width="1.63319"/>
<circle id="Ellipse 46" cx="415.819" cy="273.819" r="69.0022" stroke="#F5F5F5" stroke-width="1.63319"/>
<circle id="Ellipse 20" cx="360.819" cy="629.819" r="69.0022" fill="#F5F5F5" stroke="#F5F5F5" stroke-width="1.63319"/>
<path id="Ellipse 19" d="M571.454 384.227C571.454 422.557 540.2 453.638 501.635 453.638C463.071 453.638 431.817 422.557 431.817 384.227C431.817 345.897 463.071 314.817 501.635 314.817C540.2 314.817 571.454 345.897 571.454 384.227Z" fill="#F5F5F5" stroke="#F5F5F5" stroke-width="1.63319"/>
<circle id="Ellipse 39" cx="349.819" cy="396.819" r="69.0022" fill="#F5F5F5" stroke="#F5F5F5" stroke-width="1.63319"/>
<path id="Ellipse 21" d="M139.071 719.227C139.071 757.606 108.322 788.704 70.4105 788.704C32.4986 788.704 1.75 757.606 1.75 719.227C1.75 680.848 32.4986 649.75 70.4105 649.75C108.322 649.75 139.071 680.848 139.071 719.227Z" fill="#F5F5F5" stroke="#F5F5F5" stroke-width="1.5"/>
<path id="Ellipse 37" d="M415.888 154.41C415.888 192.326 384.969 223.071 346.819 223.071C308.669 223.071 277.75 192.326 277.75 154.41C277.75 116.494 308.669 85.75 346.819 85.75C384.969 85.75 415.888 116.494 415.888 154.41Z" stroke="#F5F5F5" stroke-width="1.5"/>
<path id="Ellipse 44" d="M344.704 519.819C344.704 557.96 313.602 588.888 275.227 588.888C236.852 588.888 205.75 557.96 205.75 519.819C205.75 481.677 236.852 450.75 275.227 450.75C313.602 450.75 344.704 481.677 344.704 519.819Z" stroke="#F5F5F5" stroke-width="1.5"/>
<path id="Ellipse 42" d="M299.888 324.41C299.888 362.326 268.969 393.071 230.819 393.071C192.669 393.071 161.75 362.326 161.75 324.41C161.75 286.494 192.669 255.75 230.819 255.75C268.969 255.75 299.888 286.494 299.888 324.41Z" fill="#F5F5F5" stroke="#F5F5F5" stroke-width="1.5"/>
<path id="Ellipse 30" d="M571.821 631.41C571.821 669.289 540.932 700.004 502.819 700.004C464.705 700.004 433.817 669.289 433.817 631.41C433.817 593.532 464.705 562.817 502.819 562.817C540.932 562.817 571.821 593.532 571.821 631.41Z" fill="#F5F5F5" stroke="#F5F5F5" stroke-width="1.63319"/>
<circle id="Ellipse 26" cx="201.227" cy="767.227" r="69.4961" fill="#F5F5F5" stroke="#F5F5F5" stroke-width="1.46186"/>
<circle id="Ellipse 38" cx="69.8188" cy="334.819" r="69.0879" fill="#F5F5F5" stroke="#F5F5F5" stroke-width="1.46186"/>
<circle id="Ellipse 31" cx="187.819" cy="627.819" r="69.0879" stroke="#F5F5F5" stroke-width="1.46186"/>
<path id="Ellipse 43" d="M139.907 552.635C139.907 591.251 108.967 622.54 70.8188 622.54C32.6706 622.54 1.73093 591.251 1.73093 552.635C1.73093 514.02 32.6706 482.731 70.8188 482.731C108.967 482.731 139.907 514.02 139.907 552.635Z" stroke="#F5F5F5" stroke-width="1.46186"/>
<path id="Ellipse 48" d="M226.907 443.635C226.907 482.251 195.967 513.54 157.819 513.54C119.671 513.54 88.7309 482.251 88.7309 443.635C88.7309 405.02 119.671 373.731 157.819 373.731C195.967 373.731 226.907 405.02 226.907 443.635Z" fill="#F5F5F5" stroke="#F5F5F5" stroke-width="1.46186"/>
<path id="Ellipse 41" d="M571.723 164.819C571.723 202.971 540.613 233.907 502.227 233.907C463.841 233.907 432.731 202.971 432.731 164.819C432.731 126.667 463.841 95.7309 502.227 95.7309C540.613 95.7309 571.723 126.667 571.723 164.819Z" fill="#F5F5F5" stroke="#F5F5F5" stroke-width="1.46186"/>
<path id="Ellipse 47" d="M140.723 195.819C140.723 233.971 109.613 264.907 71.2271 264.907C32.8414 264.907 1.73093 233.971 1.73093 195.819C1.73093 157.667 32.8414 126.731 71.2271 126.731C109.613 126.731 140.723 157.667 140.723 195.819Z" stroke="#F5F5F5" stroke-width="1.46186"/>
<circle id="Ellipse 29" cx="497.446" cy="906.182" r="69.0879" stroke="#F5F5F5" stroke-width="1.46186"/>
<circle id="Ellipse 27" cx="211.227" cy="186.227" r="69.4961" fill="#F5F5F5" stroke="#F5F5F5" stroke-width="1.46186"/>
<path id="Ellipse 32" d="M286.09 905.819C286.09 943.979 255.337 974.907 217.41 974.907C179.484 974.907 148.731 943.979 148.731 905.819C148.731 867.659 179.484 836.731 217.41 836.731C255.337 836.731 286.09 867.659 286.09 905.819Z" stroke="#F5F5F5" stroke-width="1.46186"/>
<path id="Ellipse 33" d="M502.723 510.819C502.723 548.971 471.613 579.907 433.227 579.907C394.841 579.907 363.731 548.971 363.731 510.819C363.731 472.667 394.841 441.731 433.227 441.731C471.613 441.731 502.723 472.667 502.723 510.819Z" fill="#F5F5F5" stroke="#F5F5F5" stroke-width="1.46186"/>
<path id="Ellipse 24" d="M548.071 768.227C548.071 806.606 517.322 837.704 479.41 837.704C441.499 837.704 410.75 806.606 410.75 768.227C410.75 729.848 441.499 698.75 479.41 698.75C517.322 698.75 548.071 729.848 548.071 768.227Z" fill="#F5F5F5" stroke="#F5F5F5" stroke-width="1.5"/>
<circle id="Ellipse 25" cx="341.077" cy="768.078" r="69.0937" transform="rotate(-52.2543 341.077 768.078)" stroke="#F5F5F5" stroke-width="1.63319"/>
<path id="Ellipse 23" d="M426.638 906.182C426.638 944.286 395.566 975.184 357.227 975.184C318.888 975.184 287.817 944.286 287.817 906.182C287.817 868.078 318.888 837.18 357.227 837.18C395.566 837.18 426.638 868.078 426.638 906.182Z" fill="#F5F5F5" stroke="#F5F5F5" stroke-width="1.63319"/>
<g id="Group 408">
<g id="30 y/o Female White/Caucasian Senior Designer">
<text transform="translate(194.667 271.378) rotate(17.7313)" fill="#222222" xml:space="preserve" style="white-space: pre" font-family="Sentient" font-size="12" letter-spacing="0em"><tspan x="50.5" y="53.84">&#10;</tspan></text>
<text transform="translate(194.667 271.378) rotate(17.7313)" fill="#222222" xml:space="preserve" style="white-space: pre" font-family="Sentient" font-size="12" letter-spacing="0em"><tspan x="5.58203" y="69.84">Senior Designer</tspan></text>
<text transform="translate(194.667 271.378) rotate(17.7313)" fill="#222222" xml:space="preserve" style="white-space: pre" font-family="Sentient" font-size="12" letter-spacing="0em"><tspan x="32.9395" y="11.84">30 y/o&#10;</tspan><tspan x="29.2539" y="27.84">Female&#10;</tspan><tspan x="0.173828" y="43.84">White/Caucasian&#10;</tspan></text>
</g>
<path id="Vector 354" d="M213.464 334.082L239.181 342.305" stroke="#222222" stroke-width="0.5"/>
</g>
<g id="Group 406">
<g id="37 y/o Female White/Caucasian Creative Director">
<text transform="translate(373.101 491.531) rotate(-20.9779)" fill="#222222" xml:space="preserve" style="white-space: pre" font-family="Sentient" font-size="12" letter-spacing="0em"><tspan x="50.5" y="53.84">&#10;</tspan></text>
<text transform="translate(373.101 491.531) rotate(-20.9779)" fill="#222222" xml:space="preserve" style="white-space: pre" font-family="Sentient" font-size="12" letter-spacing="0em"><tspan x="33.8594" y="11.84">37 y/o&#10;</tspan><tspan x="29.2539" y="27.84">Female&#10;</tspan><tspan x="0.173828" y="43.84">White/Caucasian&#10;</tspan></text>
<text transform="translate(373.101 491.531) rotate(-20.9779)" fill="#222222" xml:space="preserve" style="white-space: pre" font-family="Sentient" font-size="12" letter-spacing="0em"><tspan x="2.47656" y="69.84">Creative Director</tspan></text>
</g>
<path id="Vector 355" d="M426.981 528.705L452.191 519.039" stroke="#222222" stroke-width="0.5"/>
</g>
<g id="Group 409">
<g id="48 y/o Female Other Mid-level Designer">
<text transform="translate(316.621 579.914) rotate(11.7077)" fill="#222222" xml:space="preserve" style="white-space: pre" font-family="Sentient" font-size="12" letter-spacing="0em"><tspan x="53.5" y="53.84">&#10;</tspan></text>
<text transform="translate(316.621 579.914) rotate(11.7077)" fill="#222222" xml:space="preserve" style="white-space: pre" font-family="Sentient" font-size="12" letter-spacing="0em"><tspan x="0.332031" y="69.84">Mid-level Designer</tspan></text>
<text transform="translate(316.621 579.914) rotate(11.7077)" fill="#222222" xml:space="preserve" style="white-space: pre" font-family="Sentient" font-size="12" letter-spacing="0em"><tspan x="35.9102" y="11.84">48 y/o&#10;</tspan><tspan x="32.2539" y="27.84">Female&#10;</tspan><tspan x="36.5781" y="43.84">Other&#10;</tspan></text>
</g>
<path id="Vector 356" d="M344.831 640.908L371.27 646.387" stroke="#222222" stroke-width="0.5"/>
</g>
<g id="Group 410">
<g id="24 y/o Female White/Caucasian Mid-level Designer">
<text transform="translate(154.909 718.607) rotate(9.58608)" fill="#222222" xml:space="preserve" style="white-space: pre" font-family="Sentient" font-size="12" letter-spacing="0em"><tspan x="53.5" y="53.84">&#10;</tspan></text>
<text transform="translate(154.909 718.607) rotate(9.58608)" fill="#222222" xml:space="preserve" style="white-space: pre" font-family="Sentient" font-size="12" letter-spacing="0em"><tspan x="0.332031" y="69.84">Mid-level Designer</tspan></text>
<text transform="translate(154.909 718.607) rotate(9.58608)" fill="#222222" xml:space="preserve" style="white-space: pre" font-family="Sentient" font-size="12" letter-spacing="0em"><tspan x="36.2324" y="11.84">24 y/o&#10;</tspan><tspan x="32.2539" y="27.84">Female&#10;</tspan><tspan x="3.17383" y="43.84">White/Caucasian&#10;</tspan></text>
</g>
<path id="Vector 357" d="M185.358 778.514L211.981 783.01" stroke="#222222" stroke-width="0.5"/>
</g>
<g id="Group 412">
<g id="20 y/o Female Latinx/Hispanic Junior Designer">
<text transform="translate(298.467 887.289) rotate(-22.6014)" fill="#222222" xml:space="preserve" style="white-space: pre" font-family="Sentient" font-size="12" letter-spacing="0em"><tspan x="48" y="53.84">&#10;</tspan></text>
<text transform="translate(298.467 887.289) rotate(-22.6014)" fill="#222222" xml:space="preserve" style="white-space: pre" font-family="Sentient" font-size="12" letter-spacing="0em"><tspan x="3.89062" y="69.84">Junior Designer</tspan></text>
<text transform="translate(298.467 887.289) rotate(-22.6014)" fill="#222222" xml:space="preserve" style="white-space: pre" font-family="Sentient" font-size="12" letter-spacing="0em"><tspan x="30.3398" y="11.84">20 y/o&#10;</tspan><tspan x="26.7539" y="27.84">Female&#10;</tspan><tspan x="0.398438" y="43.84">Latinx/Hispanic&#10;</tspan></text>
</g>
<path id="Vector 358" d="M351.916 924.613L376.842 914.237" stroke="#222222" stroke-width="0.5"/>
</g>
</g>
<defs>
<clipPath id="clip0_1896_2734">
<rect width="573" height="982" fill="white"/>
</clipPath>
</defs>
</svg>
