<svg width="573" height="982" viewBox="0 0 573 982" fill="none" xmlns="http://www.w3.org/2000/svg">
<g id="EDUCATION_NoCollege_White" clip-path="url(#clip0_1902_1099)">
<circle id="Ellipse 27" cx="70.2271" cy="906.227" r="69.2271" fill="#F5F5F5" stroke="#F5F5F5" stroke-width="2"/>
<circle id="Ellipse 26" cx="127.227" cy="779.227" r="69.2271" stroke="#F5F5F5" stroke-width="2"/>
<circle id="Ellipse 165" cx="210.227" cy="906.227" r="69.2271" fill="#F5F5F5" stroke="#F5F5F5" stroke-width="2"/>
<circle id="Ellipse 39" cx="266.819" cy="779.819" r="68.8188" fill="#F5F5F5" stroke="#F5F5F5" stroke-width="2"/>
<path id="Ellipse 30" d="M277.638 653.41C277.638 691.187 246.832 721.821 208.819 721.821C170.806 721.821 140 691.187 140 653.41C140 615.634 170.806 585 208.819 585C246.832 585 277.638 615.634 277.638 653.41Z" stroke="#F5F5F5" stroke-width="2"/>
<circle id="Ellipse 25" cx="70.0768" cy="653.076" r="68.9103" transform="rotate(-52.2543 70.0768 653.076)" fill="#F5F5F5" stroke="#F5F5F5" stroke-width="2"/>
<path id="Ellipse 37" d="M416.638 647.41C416.638 685.187 385.832 715.821 347.819 715.821C309.806 715.821 279 685.187 279 647.41C279 609.634 309.806 579 347.819 579C385.832 579 416.638 609.634 416.638 647.41Z" stroke="#F5F5F5" stroke-width="2"/>
<path id="Ellipse 41" d="M208.454 533.819C208.454 571.821 177.466 602.638 139.227 602.638C100.989 602.638 70 571.821 70 533.819C70 495.817 100.989 465 139.227 465C177.466 465 208.454 495.817 208.454 533.819Z" fill="#F5F5F5" stroke="#F5F5F5" stroke-width="2"/>
<path id="Ellipse 47" d="M437.454 905.819C437.454 943.821 406.466 974.638 368.227 974.638C329.989 974.638 299 943.821 299 905.819C299 867.817 329.989 837 368.227 837C406.466 837 437.454 867.817 437.454 905.819Z" stroke="#F5F5F5" stroke-width="2"/>
<circle id="Ellipse 29" cx="405.819" cy="772.819" r="68.8188" fill="#F5F5F5" stroke="#F5F5F5" stroke-width="2"/>
<path id="Ellipse 42" d="M571.638 871.41C571.638 909.187 540.832 939.821 502.819 939.821C464.806 939.821 434 909.187 434 871.41C434 833.634 464.806 803 502.819 803C540.832 803 571.638 833.634 571.638 871.41Z" stroke="#F5F5F5" stroke-width="2"/>
<path id="Ellipse 32" d="M571.821 674.819C571.821 712.832 541.187 743.638 503.41 743.638C465.634 743.638 435 712.832 435 674.819C435 636.806 465.634 606 503.41 606C541.187 606 571.821 636.806 571.821 674.819Z" fill="#F5F5F5" stroke="#F5F5F5" stroke-width="2"/>
<path id="Ellipse 24" d="M570.821 535.227C570.821 573.471 540.182 604.454 502.41 604.454C464.639 604.454 434 573.471 434 535.227C434 496.983 464.639 466 502.41 466C540.182 466 570.821 496.983 570.821 535.227Z" stroke="#F5F5F5" stroke-width="2"/>
<circle id="Ellipse 18" cx="366.819" cy="509.819" r="68.8188" stroke="#F5F5F5" stroke-width="2"/>
<path id="Ellipse 23" d="M313.454 442.819C313.454 480.821 282.466 511.638 244.227 511.638C205.989 511.638 175 480.821 175 442.819C175 404.817 205.989 374 244.227 374C282.466 374 313.454 404.817 313.454 442.819Z" fill="#F5F5F5" stroke="#F5F5F5" stroke-width="2"/>
<circle id="Ellipse 38" cx="69.8188" cy="413.819" r="68.8188" stroke="#F5F5F5" stroke-width="2"/>
<circle id="Ellipse 46" cx="435.819" cy="387.819" r="68.8188" fill="#F5F5F5" stroke="#F5F5F5" stroke-width="2"/>
<path id="Ellipse 48" d="M247.638 319.635C247.638 358.105 216.815 389.271 178.819 389.271C140.822 389.271 110 358.105 110 319.635C110 281.166 140.822 250 178.819 250C216.815 250 247.638 281.166 247.638 319.635Z" fill="#F5F5F5" stroke="#F5F5F5" stroke-width="2"/>
<path id="Ellipse 19" d="M389.271 311.227C389.271 349.455 358.099 380.454 319.635 380.454C281.171 380.454 250 349.455 250 311.227C250 272.999 281.171 242 319.635 242C358.099 242 389.271 272.999 389.271 311.227Z" stroke="#F5F5F5" stroke-width="2"/>
<path id="Ellipse 44" d="M571.454 265.819C571.454 303.821 540.466 334.638 502.227 334.638C463.989 334.638 433 303.821 433 265.819C433 227.817 463.989 197 502.227 197C540.466 197 571.454 227.817 571.454 265.819Z" stroke="#F5F5F5" stroke-width="2"/>
<path id="Ellipse 33" d="M140.454 231.819C140.454 269.821 109.466 300.638 71.2271 300.638C32.9885 300.638 2 269.821 2 231.819C2 193.817 32.9885 163 71.2271 163C109.466 163 140.454 193.817 140.454 231.819Z" stroke="#F5F5F5" stroke-width="2"/>
<path id="Ellipse 43" d="M318.638 189.635C318.638 228.105 287.815 259.271 249.819 259.271C211.822 259.271 181 228.105 181 189.635C181 151.166 211.822 120 249.819 120C287.815 120 318.638 151.166 318.638 189.635Z" stroke="#F5F5F5" stroke-width="2"/>
<circle id="Ellipse 20" cx="388.819" cy="184.819" r="68.8188" stroke="#F5F5F5" stroke-width="2"/>
<circle id="Ellipse 31" cx="136.819" cy="108.819" r="68.8188" fill="#F5F5F5" stroke="#F5F5F5" stroke-width="2"/>
<path id="Ellipse 166" d="M572.454 106.819C572.454 144.821 541.466 175.638 503.227 175.638C464.989 175.638 434 144.821 434 106.819C434 68.8167 464.989 38 503.227 38C541.466 38 572.454 68.8167 572.454 106.819Z" fill="#F5F5F5" stroke="#F5F5F5" stroke-width="2"/>
<g id="Group 389">
<g id="50 y/o Female White/Caucasian Professor">
<text transform="translate(116.29 308.987) rotate(-29.7975)" fill="#222222" xml:space="preserve" style="white-space: pre" font-family="Sentient" font-size="12" letter-spacing="0em"><tspan x="50.5" y="53.84">&#10;</tspan></text>
<text transform="translate(116.29 308.987) rotate(-29.7975)" fill="#222222" xml:space="preserve" style="white-space: pre" font-family="Sentient" font-size="12" letter-spacing="0em"><tspan x="32.9805" y="11.84">50 y/o&#10;</tspan><tspan x="29.2539" y="27.84">Female&#10;</tspan><tspan x="0.173828" y="43.84">White/Caucasian&#10;</tspan></text>
<text transform="translate(116.29 308.987) rotate(-29.7975)" fill="#222222" xml:space="preserve" style="white-space: pre" font-family="Sentient" font-size="12" letter-spacing="0em"><tspan x="23.623" y="69.84">Professor</tspan></text>
</g>
<path id="Vector 355" d="M175.233 337.461L198.663 324.044" stroke="#222222" stroke-width="0.5"/>
</g>
<g id="Group 395">
<g id="27 y/o Female Black/African Am. Mid-level Designer">
<text transform="translate(399.097 330.934) rotate(21.2662)" fill="#222222" xml:space="preserve" style="white-space: pre" font-family="Sentient" font-size="12" letter-spacing="0em"><tspan x="54" y="53.84">&#10;</tspan></text>
<text transform="translate(399.097 330.934) rotate(21.2662)" fill="#222222" xml:space="preserve" style="white-space: pre" font-family="Sentient" font-size="12" letter-spacing="0em"><tspan x="37.2773" y="11.84">27 y/o&#10;</tspan><tspan x="32.7539" y="27.84">Female&#10;</tspan><tspan x="0.375" y="43.84">Black/African Am.&#10;</tspan></text>
<text transform="translate(399.097 330.934) rotate(21.2662)" fill="#222222" xml:space="preserve" style="white-space: pre" font-family="Sentient" font-size="12" letter-spacing="0em"><tspan x="0.832031" y="69.84">Mid-level Designer</tspan></text>
</g>
<path id="Vector 355_2" d="M416.788 395.765L441.949 405.558" stroke="#222222" stroke-width="0.5"/>
</g>
<g id="Group 396">
<g id="29 y/o Female Bi/Multi-Racial Mid-level Designer">
<text transform="translate(97.0317 481.729) rotate(14.574)" fill="#222222" xml:space="preserve" style="white-space: pre" font-family="Sentient" font-size="12" letter-spacing="0em"><tspan x="53.5" y="53.84">&#10;</tspan></text>
<text transform="translate(97.0317 481.729) rotate(14.574)" fill="#222222" xml:space="preserve" style="white-space: pre" font-family="Sentient" font-size="12" letter-spacing="0em"><tspan x="36.1328" y="11.84">29 y/o&#10;</tspan><tspan x="32.2539" y="27.84">Female&#10;</tspan><tspan x="8.51172" y="43.84">Bi/Multi-Racial&#10;</tspan></text>
<text transform="translate(97.0317 481.729) rotate(14.574)" fill="#222222" xml:space="preserve" style="white-space: pre" font-family="Sentient" font-size="12" letter-spacing="0em"><tspan x="0.332031" y="69.84">Mid-level Designer</tspan></text>
</g>
<path id="Vector 356" d="M121.189 543.805L147.32 550.599" stroke="#222222" stroke-width="0.5"/>
</g>
<g id="Group 398">
<g id="25 y/o Female Latinx/Hispanic Junior Designer">
<text transform="translate(227.717 730.85) rotate(11.9695)" fill="#222222" xml:space="preserve" style="white-space: pre" font-family="Sentient" font-size="12" letter-spacing="0em"><tspan x="48" y="53.84">&#10;</tspan></text>
<text transform="translate(227.717 730.85) rotate(11.9695)" fill="#222222" xml:space="preserve" style="white-space: pre" font-family="Sentient" font-size="12" letter-spacing="0em"><tspan x="31.0957" y="11.84">25 y/o&#10;</tspan><tspan x="26.7539" y="27.84">Female&#10;</tspan><tspan x="0.398438" y="43.84">Latinx/Hispanic&#10;</tspan></text>
<text transform="translate(227.717 730.85) rotate(11.9695)" fill="#222222" xml:space="preserve" style="white-space: pre" font-family="Sentient" font-size="12" letter-spacing="0em"><tspan x="3.89062" y="69.84">Junior Designer</tspan></text>
</g>
<path id="Vector 357" d="M249.779 790.727L276.192 796.326" stroke="#222222" stroke-width="0.5"/>
</g>
<g id="Group 399">
<g id="24 y/o Male White/Caucasian Junior Designer">
<text transform="translate(351.779 744.855) rotate(-5.33459)" fill="#222222" xml:space="preserve" style="white-space: pre" font-family="Sentient" font-size="12" letter-spacing="0em"><tspan x="50.5" y="53.84">&#10;</tspan></text>
<text transform="translate(351.779 744.855) rotate(-5.33459)" fill="#222222" xml:space="preserve" style="white-space: pre" font-family="Sentient" font-size="12" letter-spacing="0em"><tspan x="33.2324" y="11.84">24 y/o&#10;</tspan><tspan x="35.9805" y="27.84">Male&#10;</tspan><tspan x="0.173828" y="43.84">White/Caucasian&#10;</tspan></text>
<text transform="translate(351.779 744.855) rotate(-5.33459)" fill="#222222" xml:space="preserve" style="white-space: pre" font-family="Sentient" font-size="12" letter-spacing="0em"><tspan x="6.39062" y="69.84">Junior Designer</tspan></text>
</g>
<path id="Vector 358" d="M393.639 795.182L420.522 792.671" stroke="#222222" stroke-width="0.5"/>
</g>
</g>
<defs>
<clipPath id="clip0_1902_1099">
<rect width="573" height="982" fill="white"/>
</clipPath>
</defs>
</svg>
