<svg width="573" height="982" viewBox="0 0 573 982" fill="none" xmlns="http://www.w3.org/2000/svg">
<g id="DEMOGRAPHIC_DesignLeadership_White" clip-path="url(#clip0_1896_2656)">
<circle id="Ellipse 18" cx="70.8188" cy="905.819" r="68.8188" stroke="#F5F5F5" stroke-width="2"/>
<circle id="Ellipse 46" cx="415.819" cy="273.819" r="68.8188" stroke="#F5F5F5" stroke-width="2"/>
<circle id="Ellipse 20" cx="360.819" cy="629.819" r="68.8188" stroke="#F5F5F5" stroke-width="2"/>
<path id="Ellipse 19" d="M571.271 384.227C571.271 422.455 540.099 453.454 501.635 453.454C463.171 453.454 432 422.455 432 384.227C432 345.999 463.171 315 501.635 315C540.099 315 571.271 345.999 571.271 384.227Z" stroke="#F5F5F5" stroke-width="2"/>
<circle id="Ellipse 39" cx="349.819" cy="396.819" r="68.8188" stroke="#F5F5F5" stroke-width="2"/>
<path id="Ellipse 21" d="M137.297 733.588C129.268 770.98 92.8072 794.84 55.8778 786.911C18.9484 778.982 -4.50403 742.257 3.52454 704.865C11.5531 667.473 48.014 643.613 84.9434 651.542C121.873 659.471 145.325 696.196 137.297 733.588Z" fill="#F5F5F5" stroke="#F5F5F5" stroke-width="2"/>
<path id="Ellipse 37" d="M410.572 180.325C396.347 215.321 356.273 232.1 321.058 217.786C285.843 203.471 268.841 163.492 283.066 128.496C297.291 93.5004 337.364 76.7214 372.579 91.0356C407.794 105.35 424.797 145.329 410.572 180.325Z" fill="#F5F5F5" stroke="#F5F5F5" stroke-width="2"/>
<path id="Ellipse 44" d="M344.454 519.819C344.454 557.821 313.466 588.638 275.227 588.638C236.989 588.638 206 557.821 206 519.819C206 481.817 236.989 451 275.227 451C313.466 451 344.454 481.817 344.454 519.819Z" fill="#F5F5F5" stroke="#F5F5F5" stroke-width="2"/>
<path id="Ellipse 42" d="M299.635 325.01C299.306 362.785 268.234 393.15 230.222 392.818C192.211 392.487 161.673 361.585 162.003 323.81C162.332 286.035 193.404 255.671 231.415 256.002C269.427 256.334 299.964 287.235 299.635 325.01Z" fill="#F5F5F5" stroke="#F5F5F5" stroke-width="2"/>
<path id="Ellipse 30" d="M571.638 631.41C571.638 669.187 540.832 699.821 502.819 699.821C464.806 699.821 434 669.187 434 631.41C434 593.634 464.806 563 502.819 563C540.832 563 571.638 593.634 571.638 631.41Z" stroke="#F5F5F5" stroke-width="2"/>
<circle id="Ellipse 26" cx="201.227" cy="767.227" r="69.2271" stroke="#F5F5F5" stroke-width="2"/>
<circle id="Ellipse 38" cx="69.8188" cy="334.819" r="68.8188" stroke="#F5F5F5" stroke-width="2"/>
<circle id="Ellipse 31" cx="187.819" cy="627.819" r="68.8188" stroke="#F5F5F5" stroke-width="2"/>
<path id="Ellipse 43" d="M139.638 552.635C139.638 591.105 108.815 622.271 70.8188 622.271C32.8221 622.271 2 591.105 2 552.635C2 514.166 32.8221 483 70.8188 483C108.815 483 139.638 514.166 139.638 552.635Z" stroke="#F5F5F5" stroke-width="2"/>
<path id="Ellipse 48" d="M226.638 443.635C226.638 482.105 195.815 513.271 157.819 513.271C119.822 513.271 89 482.105 89 443.635C89 405.166 119.822 374 157.819 374C195.815 374 226.638 405.166 226.638 443.635Z" stroke="#F5F5F5" stroke-width="2"/>
<path id="Ellipse 41" d="M571.454 164.819C571.454 202.821 540.466 233.638 502.227 233.638C463.989 233.638 433 202.821 433 164.819C433 126.817 463.989 96 502.227 96C540.466 96 571.454 126.817 571.454 164.819Z" stroke="#F5F5F5" stroke-width="2"/>
<path id="Ellipse 47" d="M140.454 195.819C140.454 233.821 109.466 264.638 71.2271 264.638C32.9885 264.638 2 233.821 2 195.819C2 157.817 32.9885 127 71.2271 127C109.466 127 140.454 157.817 140.454 195.819Z" stroke="#F5F5F5" stroke-width="2"/>
<circle id="Ellipse 29" cx="497.446" cy="906.181" r="68.8188" stroke="#F5F5F5" stroke-width="2"/>
<circle id="Ellipse 27" cx="211.227" cy="186.227" r="69.2271" stroke="#F5F5F5" stroke-width="2"/>
<path id="Ellipse 32" d="M285.821 905.819C285.821 943.832 255.187 974.638 217.41 974.638C179.634 974.638 149 943.832 149 905.819C149 867.806 179.634 837 217.41 837C255.187 837 285.821 867.806 285.821 905.819Z" stroke="#F5F5F5" stroke-width="2"/>
<path id="Ellipse 33" d="M502.454 510.819C502.454 548.821 471.466 579.638 433.227 579.638C394.989 579.638 364 548.821 364 510.819C364 472.817 394.989 442 433.227 442C471.466 442 502.454 472.817 502.454 510.819Z" fill="#F5F5F5" stroke="#F5F5F5" stroke-width="2"/>
<path id="Ellipse 24" d="M547.821 768.227C547.821 806.471 517.182 837.454 479.41 837.454C441.639 837.454 411 806.471 411 768.227C411 729.983 441.639 699 479.41 699C517.182 699 547.821 729.983 547.821 768.227Z" fill="#F5F5F5" stroke="#F5F5F5" stroke-width="2"/>
<circle id="Ellipse 25" cx="341.077" cy="768.077" r="69.0937" transform="rotate(-52.2543 341.077 768.077)" stroke="#F5F5F5" stroke-width="1.63319"/>
<path id="Ellipse 23" d="M426.454 906.181C426.454 944.183 395.466 975 357.227 975C318.989 975 288 944.183 288 906.181C288 868.179 318.989 837.362 357.227 837.362C395.466 837.362 426.454 868.179 426.454 906.181Z" stroke="#F5F5F5" stroke-width="2"/>
<path id="Ellipse 165" d="M202.638 72.4105C202.638 110.187 171.832 140.821 133.819 140.821C95.8057 140.821 65 110.187 65 72.4105C65 34.6339 95.8057 4 133.819 4C171.832 4 202.638 34.6339 202.638 72.4105Z" stroke="#F5F5F5" stroke-width="2"/>
<g id="Group 376">
<g id="57 y/o Female Black/African Am. Creative Director">
<text transform="translate(189.61 270.941) rotate(16.8413)" fill="#222222" xml:space="preserve" style="white-space: pre" font-family="Sentient" font-size="12" letter-spacing="0em"><tspan x="54" y="53.84">&#10;</tspan></text>
<text transform="translate(189.61 270.941) rotate(16.8413)" fill="#222222" xml:space="preserve" style="white-space: pre" font-family="Sentient" font-size="12" letter-spacing="0em"><tspan x="37.459" y="11.84">57 y/o&#10;</tspan><tspan x="32.7539" y="27.84">Female&#10;</tspan><tspan x="0.375" y="43.84">Black/African Am.&#10;</tspan></text>
<text transform="translate(189.61 270.941) rotate(16.8413)" fill="#222222" xml:space="preserve" style="white-space: pre" font-family="Sentient" font-size="12" letter-spacing="0em"><tspan x="5.97656" y="69.84">Creative Director</tspan></text>
</g>
<path id="Vector 355" d="M213.904 333.67L239.746 341.492" stroke="#222222" stroke-width="0.5"/>
</g>
<g id="Group 374">
<g id="24 y/o Male Black/African Am. Design Lead">
<text transform="translate(234.359 465.62) rotate(17.2934)" fill="#222222" xml:space="preserve" style="white-space: pre" font-family="Sentient" font-size="12" letter-spacing="0em"><tspan x="54" y="53.84">&#10;</tspan></text>
<text transform="translate(234.359 465.62) rotate(17.2934)" fill="#222222" xml:space="preserve" style="white-space: pre" font-family="Sentient" font-size="12" letter-spacing="0em"><tspan x="36.7324" y="11.84">24 y/o&#10;</tspan><tspan x="39.4805" y="27.84">Male&#10;</tspan><tspan x="0.375" y="43.84">Black/African Am.&#10;</tspan></text>
<text transform="translate(234.359 465.62) rotate(17.2934)" fill="#222222" xml:space="preserve" style="white-space: pre" font-family="Sentient" font-size="12" letter-spacing="0em"><tspan x="19.4883" y="69.84">Design Lead</tspan></text>
</g>
<path id="Vector 357" d="M257.531 529.391L283.31 537.417" stroke="#222222" stroke-width="0.5"/>
</g>
<g id="Group 379">
<g id="34 y/o Male Latino/Hispanic Design Lead">
<text transform="translate(11.7639 698.623) rotate(-20.9645)" fill="#222222" xml:space="preserve" style="white-space: pre" font-family="Sentient" font-size="12" letter-spacing="0em"><tspan x="48" y="53.84">&#10;</tspan></text>
<text transform="translate(11.7639 698.623) rotate(-20.9645)" fill="#222222" xml:space="preserve" style="white-space: pre" font-family="Sentient" font-size="12" letter-spacing="0em"><tspan x="30.7559" y="11.84">34 y/o&#10;</tspan><tspan x="33.4805" y="27.84">Male&#10;</tspan><tspan x="0.404297" y="43.84">Latino/Hispanic&#10;</tspan></text>
<text transform="translate(11.7639 698.623) rotate(-20.9645)" fill="#222222" xml:space="preserve" style="white-space: pre" font-family="Sentient" font-size="12" letter-spacing="0em"><tspan x="13.4883" y="69.84">Design Lead</tspan></text>
</g>
<path id="Vector 359" d="M63.9314 736.463L89.1441 726.803" stroke="#222222" stroke-width="0.5"/>
</g>
<g id="Group 378">
<g id="45 y/o Female Bi-/Multi-racial Creative Director">
<text transform="translate(454.044 709.406) rotate(28.3531)" fill="#222222" xml:space="preserve" style="white-space: pre" font-family="Sentient" font-size="12" letter-spacing="0em"><tspan x="48.5" y="53.84">&#10;</tspan></text>
<text transform="translate(454.044 709.406) rotate(28.3531)" fill="#222222" xml:space="preserve" style="white-space: pre" font-family="Sentient" font-size="12" letter-spacing="0em"><tspan x="31.3555" y="11.84">45 y/o&#10;</tspan><tspan x="27.2539" y="27.84">Female&#10;</tspan><tspan x="2.61523" y="43.84">Bi-/Multi-racial&#10;</tspan></text>
<text transform="translate(454.044 709.406) rotate(28.3531)" fill="#222222" xml:space="preserve" style="white-space: pre" font-family="Sentient" font-size="12" letter-spacing="0em"><tspan x="0.476562" y="69.84">Creative Director</tspan></text>
</g>
<path id="Vector 360" d="M460.859 773.31L484.621 786.132" stroke="#222222" stroke-width="0.5"/>
</g>
<g id="Group 375">
<g id="40 y/o Male Latino/Hispanic Art Director">
<text transform="translate(377.669 486.06) rotate(-16.4019)" fill="#222222" xml:space="preserve" style="white-space: pre" font-family="Sentient" font-size="12" letter-spacing="0em"><tspan x="48" y="53.84">&#10;</tspan></text>
<text transform="translate(377.669 486.06) rotate(-16.4019)" fill="#222222" xml:space="preserve" style="white-space: pre" font-family="Sentient" font-size="12" letter-spacing="0em"><tspan x="30.0996" y="11.84">40 y/o&#10;</tspan><tspan x="33.4805" y="27.84">Male&#10;</tspan><tspan x="0.404297" y="43.84">Latino/Hispanic&#10;</tspan></text>
<text transform="translate(377.669 486.06) rotate(-16.4019)" fill="#222222" xml:space="preserve" style="white-space: pre" font-family="Sentient" font-size="12" letter-spacing="0em"><tspan x="14.291" y="69.84">Art Director</tspan></text>
</g>
<path id="Vector 358" d="M426.054 527.065L451.955 519.441" stroke="#222222" stroke-width="0.5"/>
</g>
<g id="Group 377">
<g id="51 y/o Male Black/African Am. Creative Director">
<text transform="translate(300.139 106.373) rotate(9.76988)" fill="#222222" xml:space="preserve" style="white-space: pre" font-family="Sentient" font-size="12" letter-spacing="0em"><tspan x="37.7812" y="11.84">51 y/o&#10;</tspan><tspan x="39.4805" y="27.84">Male&#10;</tspan><tspan x="0.375" y="43.84">Black/African Am.&#10;</tspan></text>
<text transform="translate(300.139 106.373) rotate(9.76988)" fill="#222222" xml:space="preserve" style="white-space: pre" font-family="Sentient" font-size="12" letter-spacing="0em"><tspan x="5.97656" y="69.84">Creative Director</tspan></text>
<text transform="translate(300.139 106.373) rotate(9.76988)" fill="#222222" xml:space="preserve" style="white-space: pre" font-family="Sentient" font-size="12" letter-spacing="0em"><tspan x="54" y="53.84">&#10;</tspan></text>
</g>
<path id="Vector 356" d="M331.305 166.534L357.913 171.116" stroke="#222222" stroke-width="0.5"/>
</g>
</g>
<defs>
<clipPath id="clip0_1896_2656">
<rect width="573" height="982" fill="white"/>
</clipPath>
</defs>
</svg>
