<svg width="573" height="982" viewBox="0 0 573 982" fill="none" xmlns="http://www.w3.org/2000/svg">
<g id="DEMOGRAPHIC_DesignLeadership_Black" clip-path="url(#clip0_1896_2552)">
<circle id="Ellipse 18" cx="70.8188" cy="905.819" r="68.8188" stroke="#222222" stroke-width="2"/>
<circle id="Ellipse 46" cx="415.819" cy="273.819" r="68.8188" stroke="#222222" stroke-width="2"/>
<circle id="Ellipse 20" cx="360.819" cy="629.819" r="68.8188" stroke="#222222" stroke-width="2"/>
<path id="Ellipse 19" d="M571.271 384.227C571.271 422.455 540.099 453.454 501.635 453.454C463.171 453.454 432 422.455 432 384.227C432 345.999 463.171 315 501.635 315C540.099 315 571.271 345.999 571.271 384.227Z" stroke="#222222" stroke-width="2"/>
<circle id="Ellipse 39" cx="349.819" cy="396.819" r="68.8188" stroke="#222222" stroke-width="2"/>
<path id="Ellipse 21" d="M138.821 719.227C138.821 757.471 108.182 788.454 70.4105 788.454C32.6394 788.454 2 757.471 2 719.227C2 680.983 32.6394 650 70.4105 650C108.182 650 138.821 680.983 138.821 719.227Z" fill="#222222" stroke="#222222" stroke-width="2"/>
<path id="Ellipse 37" d="M415.638 154.41C415.638 192.187 384.832 222.821 346.819 222.821C308.806 222.821 278 192.187 278 154.41C278 116.634 308.806 86 346.819 86C384.832 86 415.638 116.634 415.638 154.41Z" fill="#222222" stroke="#222222" stroke-width="2"/>
<path id="Ellipse 44" d="M344.454 519.819C344.454 557.821 313.466 588.638 275.227 588.638C236.989 588.638 206 557.821 206 519.819C206 481.817 236.989 451 275.227 451C313.466 451 344.454 481.817 344.454 519.819Z" fill="#222222" stroke="#222222" stroke-width="2"/>
<path id="Ellipse 42" d="M299.638 324.41C299.638 362.187 268.832 392.821 230.819 392.821C192.806 392.821 162 362.187 162 324.41C162 286.634 192.806 256 230.819 256C268.832 256 299.638 286.634 299.638 324.41Z" fill="#222222" stroke="#222222" stroke-width="2"/>
<path id="Ellipse 30" d="M571.638 631.41C571.638 669.187 540.832 699.821 502.819 699.821C464.806 699.821 434 669.187 434 631.41C434 593.634 464.806 563 502.819 563C540.832 563 571.638 593.634 571.638 631.41Z" stroke="#222222" stroke-width="2"/>
<circle id="Ellipse 26" cx="201.227" cy="767.227" r="69.2271" stroke="#222222" stroke-width="2"/>
<circle id="Ellipse 38" cx="69.8188" cy="334.819" r="68.8188" stroke="#222222" stroke-width="2"/>
<circle id="Ellipse 31" cx="187.819" cy="627.819" r="68.8188" stroke="#222222" stroke-width="2"/>
<path id="Ellipse 43" d="M139.638 552.635C139.638 591.105 108.815 622.271 70.8188 622.271C32.8221 622.271 2 591.105 2 552.635C2 514.166 32.8221 483 70.8188 483C108.815 483 139.638 514.166 139.638 552.635Z" stroke="#222222" stroke-width="2"/>
<path id="Ellipse 48" d="M226.638 443.635C226.638 482.105 195.815 513.271 157.819 513.271C119.822 513.271 89 482.105 89 443.635C89 405.166 119.822 374 157.819 374C195.815 374 226.638 405.166 226.638 443.635Z" stroke="#222222" stroke-width="2"/>
<path id="Ellipse 41" d="M571.454 164.819C571.454 202.821 540.466 233.638 502.227 233.638C463.989 233.638 433 202.821 433 164.819C433 126.817 463.989 96 502.227 96C540.466 96 571.454 126.817 571.454 164.819Z" stroke="#222222" stroke-width="2"/>
<path id="Ellipse 47" d="M140.454 195.819C140.454 233.821 109.466 264.638 71.2271 264.638C32.9885 264.638 2 233.821 2 195.819C2 157.817 32.9885 127 71.2271 127C109.466 127 140.454 157.817 140.454 195.819Z" stroke="#222222" stroke-width="2"/>
<circle id="Ellipse 29" cx="497.446" cy="906.181" r="68.8188" stroke="#222222" stroke-width="2"/>
<circle id="Ellipse 27" cx="211.227" cy="186.227" r="69.2271" stroke="#222222" stroke-width="2"/>
<path id="Ellipse 32" d="M285.821 905.819C285.821 943.832 255.187 974.638 217.41 974.638C179.634 974.638 149 943.832 149 905.819C149 867.806 179.634 837 217.41 837C255.187 837 285.821 867.806 285.821 905.819Z" stroke="#222222" stroke-width="2"/>
<path id="Ellipse 33" d="M502.454 510.819C502.454 548.821 471.466 579.638 433.227 579.638C394.989 579.638 364 548.821 364 510.819C364 472.817 394.989 442 433.227 442C471.466 442 502.454 472.817 502.454 510.819Z" fill="#222222" stroke="#222222" stroke-width="2"/>
<path id="Ellipse 24" d="M547.821 768.227C547.821 806.471 517.182 837.454 479.41 837.454C441.639 837.454 411 806.471 411 768.227C411 729.983 441.639 699 479.41 699C517.182 699 547.821 729.983 547.821 768.227Z" fill="#222222" stroke="#222222" stroke-width="2"/>
<circle id="Ellipse 25" cx="341.077" cy="768.077" r="69.0937" transform="rotate(-52.2543 341.077 768.077)" stroke="#222222" stroke-width="1.63319"/>
<path id="Ellipse 23" d="M426.454 906.181C426.454 944.183 395.466 975 357.227 975C318.989 975 288 944.183 288 906.181C288 868.179 318.989 837.362 357.227 837.362C395.466 837.362 426.454 868.179 426.454 906.181Z" stroke="#222222" stroke-width="2"/>
<path id="Ellipse 165" d="M202.638 72.4105C202.638 110.187 171.832 140.821 133.819 140.821C95.8057 140.821 65 110.187 65 72.4105C65 34.6339 95.8057 4 133.819 4C171.832 4 202.638 34.6339 202.638 72.4105Z" stroke="#222222" stroke-width="2"/>
</g>
<defs>
<clipPath id="clip0_1896_2552">
<rect width="573" height="982" fill="white"/>
</clipPath>
</defs>
</svg>
