<svg width="573" height="982" viewBox="0 0 573 982" fill="none" xmlns="http://www.w3.org/2000/svg">
<g id="DEMOGRAPHIC_FemaleIncome_Black" clip-path="url(#clip0_1896_2605)">
<circle id="Ellipse 46" cx="70.8188" cy="905.819" r="68.8188" fill="#222222" stroke="#222222" stroke-width="2"/>
<path id="Ellipse 37" d="M152.638 768.41C152.638 806.187 121.832 836.821 83.8188 836.821C45.8057 836.821 15 806.187 15 768.41C15 730.634 45.8057 700 83.8188 700C121.832 700 152.638 730.634 152.638 768.41Z" fill="#222222" stroke="#222222" stroke-width="2"/>
<path id="Ellipse 42" d="M571.638 769.41C571.638 807.187 540.832 837.821 502.819 837.821C464.806 837.821 434 807.187 434 769.41C434 731.634 464.806 701 502.819 701C540.832 701 571.638 731.634 571.638 769.41Z" fill="#222222" stroke="#222222" stroke-width="2"/>
<circle id="Ellipse 39" cx="320.819" cy="369.819" r="68.8188" stroke="#222222" stroke-width="2"/>
<path id="Ellipse 32" d="M527.821 368.819C527.821 406.832 497.187 437.638 459.41 437.638C421.634 437.638 391 406.832 391 368.819C391 330.806 421.634 300 459.41 300C497.187 300 527.821 330.806 527.821 368.819Z" stroke="#222222" stroke-width="2"/>
<circle id="Ellipse 18" cx="502.819" cy="500.819" r="68.8188" fill="#222222" stroke="#222222" stroke-width="2"/>
<circle id="Ellipse 20" cx="198.819" cy="578.819" r="68.8188" fill="#222222" stroke="#222222" stroke-width="2"/>
<path id="Ellipse 19" d="M142.271 213.227C142.271 251.455 111.099 282.454 72.6354 282.454C34.1713 282.454 3 251.455 3 213.227C3 174.999 34.1713 144 72.6354 144C111.099 144 142.271 174.999 142.271 213.227Z" fill="#222222" stroke="#222222" stroke-width="2"/>
<path id="Ellipse 44" d="M269.454 439.819C269.454 477.821 238.466 508.638 200.227 508.638C161.989 508.638 131 477.821 131 439.819C131 401.817 161.989 371 200.227 371C238.466 371 269.454 401.817 269.454 439.819Z" stroke="#222222" stroke-width="2"/>
<path id="Ellipse 30" d="M394.638 636.41C394.638 674.187 363.832 704.821 325.819 704.821C287.806 704.821 257 674.187 257 636.41C257 598.634 287.806 568 325.819 568C363.832 568 394.638 598.634 394.638 636.41Z" stroke="#222222" stroke-width="2"/>
<circle id="Ellipse 26" cx="340.227" cy="232.227" r="69.2271" stroke="#222222" stroke-width="2"/>
<circle id="Ellipse 165" cx="332.227" cy="905.227" r="69.2271" fill="#222222" stroke="#222222" stroke-width="2"/>
<circle id="Ellipse 38" cx="212.819" cy="282.819" r="68.8188" fill="#222222" stroke="#222222" stroke-width="2"/>
<circle id="Ellipse 31" cx="69.8188" cy="629.819" r="68.8188" stroke="#222222" stroke-width="2"/>
<path id="Ellipse 43" d="M160.638 352.635C160.638 391.105 129.815 422.271 91.8188 422.271C53.8221 422.271 23 391.105 23 352.635C23 314.166 53.8221 283 91.8188 283C129.815 283 160.638 314.166 160.638 352.635Z" stroke="#222222" stroke-width="2"/>
<path id="Ellipse 48" d="M540.638 905.635C540.638 944.105 509.815 975.271 471.819 975.271C433.822 975.271 403 944.105 403 905.635C403 867.166 433.822 836 471.819 836C509.815 836 540.638 867.166 540.638 905.635Z" stroke="#222222" stroke-width="2"/>
<path id="Ellipse 41" d="M493.454 121.819C493.454 159.821 462.466 190.638 424.227 190.638C385.989 190.638 355 159.821 355 121.819C355 83.8167 385.989 53 424.227 53C462.466 53 493.454 83.8167 493.454 121.819Z" fill="#222222" stroke="#222222" stroke-width="2"/>
<path id="Ellipse 47" d="M139.454 490.819C139.454 528.821 108.466 559.638 70.2271 559.638C31.9885 559.638 1 528.821 1 490.819C1 452.817 31.9885 422 70.2271 422C108.466 422 139.454 452.817 139.454 490.819Z" fill="#222222" stroke="#222222" stroke-width="2"/>
<circle id="Ellipse 29" cx="363.819" cy="769.819" r="68.8188" fill="#222222" stroke="#222222" stroke-width="2"/>
<circle id="Ellipse 27" cx="466.227" cy="635.227" r="69.2271" fill="#222222" stroke="#222222" stroke-width="2"/>
<path id="Ellipse 33" d="M432.454 501.819C432.454 539.821 401.466 570.638 363.227 570.638C324.989 570.638 294 539.821 294 501.819C294 463.817 324.989 433 363.227 433C401.466 433 432.454 463.817 432.454 501.819Z" fill="#222222" stroke="#222222" stroke-width="2"/>
<path id="Ellipse 24" d="M570.821 237.227C570.821 275.471 540.182 306.454 502.41 306.454C464.639 306.454 434 275.471 434 237.227C434 198.983 464.639 168 502.41 168C540.182 168 570.821 198.983 570.821 237.227Z" fill="#222222" stroke="#222222" stroke-width="2"/>
<circle id="Ellipse 25" cx="213.077" cy="718.076" r="68.9103" transform="rotate(-52.2543 213.077 718.076)" stroke="#222222" stroke-width="2"/>
<path id="Ellipse 23" d="M270.454 855.819C270.454 893.821 239.466 924.638 201.227 924.638C162.989 924.638 132 893.821 132 855.819C132 817.817 162.989 787 201.227 787C239.466 787 270.454 817.817 270.454 855.819Z" fill="#222222" stroke="#222222" stroke-width="2"/>
</g>
<defs>
<clipPath id="clip0_1896_2605">
<rect width="573" height="982" fill="white"/>
</clipPath>
</defs>
</svg>
