<svg width="573" height="982" viewBox="0 0 573 982" fill="none" xmlns="http://www.w3.org/2000/svg">
<g id="COMPENSATION_ChildBenefits_White" clip-path="url(#clip0_1896_2943)">
<circle id="Ellipse 18" cx="70.8188" cy="841.819" r="68.8188" fill="#F5F5F5" stroke="#F5F5F5" stroke-width="2"/>
<circle id="Ellipse 46" cx="377.819" cy="369.819" r="68.8188" fill="#F5F5F5" stroke="#F5F5F5" stroke-width="2"/>
<circle id="Ellipse 20" cx="358.819" cy="666.819" r="68.8188" fill="#F5F5F5" stroke="#F5F5F5" stroke-width="2"/>
<path id="Ellipse 19" d="M572.271 432.227C572.271 470.455 541.099 501.454 502.635 501.454C464.171 501.454 433 470.455 433 432.227C433 393.999 464.171 363 502.635 363C541.099 363 572.271 393.999 572.271 432.227Z" stroke="#F5F5F5" stroke-width="2"/>
<circle id="Ellipse 39" cx="412.819" cy="179.819" r="68.8188" stroke="#F5F5F5" stroke-width="2"/>
<path id="Ellipse 37" d="M227.638 281.41C227.638 319.187 196.832 349.821 158.819 349.821C120.806 349.821 90 319.187 90 281.41C90 243.634 120.806 213 158.819 213C196.832 213 227.638 243.634 227.638 281.41Z" stroke="#F5F5F5" stroke-width="2"/>
<path id="Ellipse 44" d="M387.454 506.819C387.454 544.821 356.466 575.638 318.227 575.638C279.989 575.638 249 544.821 249 506.819C249 468.817 279.989 438 318.227 438C356.466 438 387.454 468.817 387.454 506.819Z" stroke="#F5F5F5" stroke-width="2"/>
<path id="Ellipse 42" d="M309.638 392.41C309.638 430.187 278.832 460.821 240.819 460.821C202.806 460.821 172 430.187 172 392.41C172 354.634 202.806 324 240.819 324C278.832 324 309.638 354.634 309.638 392.41Z" stroke="#F5F5F5" stroke-width="2"/>
<path id="Ellipse 30" d="M569.638 687.41C569.638 725.187 538.832 755.821 500.819 755.821C462.806 755.821 432 725.187 432 687.41C432 649.634 462.806 619 500.819 619C538.832 619 569.638 649.634 569.638 687.41Z" stroke="#F5F5F5" stroke-width="2"/>
<circle id="Ellipse 26" cx="148.227" cy="726.227" r="69.2271" fill="#F5F5F5" stroke="#F5F5F5" stroke-width="2"/>
<circle id="Ellipse 165" cx="70.2271" cy="611.227" r="69.2271" stroke="#F5F5F5" stroke-width="2"/>
<circle id="Ellipse 38" cx="69.8188" cy="175.819" r="68.8188" stroke="#F5F5F5" stroke-width="2"/>
<circle id="Ellipse 31" cx="230.819" cy="614.819" r="68.8188" stroke="#F5F5F5" stroke-width="2"/>
<path id="Ellipse 43" d="M221.638 499.635C221.638 538.105 190.815 569.271 152.819 569.271C114.822 569.271 84 538.105 84 499.635C84 461.166 114.822 430 152.819 430C190.815 430 221.638 461.166 221.638 499.635Z" fill="#F5F5F5" stroke="#F5F5F5" stroke-width="2"/>
<path id="Ellipse 48" d="M138.638 387.635C138.638 426.105 107.815 457.271 69.8188 457.271C31.8221 457.271 1 426.105 1 387.635C1 349.166 31.8221 318 69.8188 318C107.815 318 138.638 349.166 138.638 387.635Z" stroke="#F5F5F5" stroke-width="2"/>
<path id="Ellipse 41" d="M562.454 292.819C562.454 330.821 531.466 361.638 493.227 361.638C454.989 361.638 424 330.821 424 292.819C424 254.817 454.989 224 493.227 224C531.466 224 562.454 254.817 562.454 292.819Z" stroke="#F5F5F5" stroke-width="2"/>
<path id="Ellipse 47" d="M275.454 150.819C275.454 188.821 244.466 219.638 206.227 219.638C167.989 219.638 137 188.821 137 150.819C137 112.817 167.989 82 206.227 82C244.466 82 275.454 112.817 275.454 150.819Z" stroke="#F5F5F5" stroke-width="2"/>
<circle id="Ellipse 29" cx="497.446" cy="906.181" r="68.8188" fill="#F5F5F5" stroke="#F5F5F5" stroke-width="2"/>
<circle id="Ellipse 27" cx="296.227" cy="257.227" r="69.2271" stroke="#F5F5F5" stroke-width="2"/>
<path id="Ellipse 32" d="M261.821 905.819C261.821 943.832 231.187 974.638 193.41 974.638C155.634 974.638 125 943.832 125 905.819C125 867.806 155.634 837 193.41 837C231.187 837 261.821 867.806 261.821 905.819Z" stroke="#F5F5F5" stroke-width="2"/>
<path id="Ellipse 33" d="M516.454 559.819C516.454 597.821 485.466 628.638 447.227 628.638C408.989 628.638 378 597.821 378 559.819C378 521.817 408.989 491 447.227 491C485.466 491 516.454 521.817 516.454 559.819Z" fill="#F5F5F5" stroke="#F5F5F5" stroke-width="2"/>
<path id="Ellipse 24" d="M482.821 794.227C482.821 832.471 452.182 863.454 414.41 863.454C376.639 863.454 346 832.471 346 794.227C346 755.983 376.639 725 414.41 725C452.182 725 482.821 755.983 482.821 794.227Z" stroke="#F5F5F5" stroke-width="2"/>
<circle id="Ellipse 25" cx="277.077" cy="779.077" r="68.9103" transform="rotate(-52.2543 277.077 779.077)" fill="#F5F5F5" stroke="#F5F5F5" stroke-width="2"/>
<path id="Ellipse 23" d="M401.454 905.819C401.454 943.821 370.466 974.638 332.227 974.638C293.989 974.638 263 943.821 263 905.819C263 867.817 293.989 837 332.227 837C370.466 837 401.454 867.817 401.454 905.819Z" fill="#F5F5F5" stroke="#F5F5F5" stroke-width="2"/>
<path id="Ellipse 166" d="M572.454 75.8188C572.454 113.821 541.466 144.638 503.227 144.638C464.989 144.638 434 113.821 434 75.8188C434 37.8167 464.989 7 503.227 7C541.466 7 572.454 37.8167 572.454 75.8188Z" stroke="#F5F5F5" stroke-width="2"/>
<g id="Group 350">
<g id="43 y/o Female White/Caucasian Owner">
<text transform="translate(111 454.031) rotate(13.7454)" fill="#222222" xml:space="preserve" style="white-space: pre" font-family="Sentient" font-size="12" letter-spacing="0em"><tspan x="50.5" y="51.84">&#10;</tspan></text>
<text transform="translate(111 454.031) rotate(13.7454)" fill="#222222" xml:space="preserve" style="white-space: pre" font-family="Sentient" font-size="12" letter-spacing="0em"><tspan x="33.3145" y="11.84">43 y/o&#10;</tspan><tspan x="29.2539" y="27.84">Female&#10;</tspan><tspan x="0.173828" y="43.84">White/Caucasian&#10;</tspan></text>
<text transform="translate(111 454.031) rotate(13.7454)" fill="#222222" xml:space="preserve" style="white-space: pre" font-family="Sentient" font-size="12" letter-spacing="0em"><tspan x="31.4219" y="67.84">Owner</tspan></text>
</g>
<path id="Vector 351" d="M134.347 514.305L160.574 520.72" stroke="#222222" stroke-width="0.5"/>
</g>
<g id="Group 347">
<g id="34 y/o Male White/Caucasian Creative Director">
<text transform="translate(91 697.8) rotate(-11.3052)" fill="#222222" xml:space="preserve" style="white-space: pre" font-family="Sentient" font-size="12" letter-spacing="0em"><tspan x="50.5" y="53.84">&#10;</tspan></text>
<text transform="translate(91 697.8) rotate(-11.3052)" fill="#222222" xml:space="preserve" style="white-space: pre" font-family="Sentient" font-size="12" letter-spacing="0em"><tspan x="33.2559" y="11.84">34 y/o&#10;</tspan><tspan x="35.9805" y="27.84">Male&#10;</tspan><tspan x="0.173828" y="43.84">White/Caucasian&#10;</tspan></text>
<text transform="translate(91 697.8) rotate(-11.3052)" fill="#222222" xml:space="preserve" style="white-space: pre" font-family="Sentient" font-size="12" letter-spacing="0em"><tspan x="2.47656" y="69.84">Creative Director</tspan></text>
</g>
<path id="Vector 354" d="M140.017 742.982L161.59 738.67" stroke="#222222" stroke-width="0.5"/>
</g>
<g id="Group 348">
<path id="Vector 353" d="M344.165 677.858L370.012 685.664" stroke="#222222" stroke-width="0.5"/>
<g id="43 y/o Female Asian Senior Designer">
<text transform="translate(328.814 618) rotate(16.8034)" fill="#222222" xml:space="preserve" style="white-space: pre" font-family="Sentient" font-size="12" letter-spacing="0em"><tspan x="27.8145" y="11.84">43 y/o&#10;</tspan><tspan x="23.7539" y="27.84">Female&#10;</tspan><tspan x="28.5527" y="43.84">Asian&#10;</tspan></text>
<text transform="translate(328.814 618) rotate(16.8034)" fill="#222222" xml:space="preserve" style="white-space: pre" font-family="Sentient" font-size="12" letter-spacing="0em"><tspan x="0.0820312" y="67.84">Senior Designer</tspan></text>
<text transform="translate(328.814 618) rotate(16.8034)" fill="#222222" xml:space="preserve" style="white-space: pre" font-family="Sentient" font-size="12" letter-spacing="0em"><tspan x="45" y="51.84">&#10;</tspan></text>
</g>
</g>
<g id="Group 346">
<path id="Vector 356" d="M322.514 926.944L347.997 918.02" stroke="#222222" stroke-width="0.5"/>
<g id="30 y/o Female Prefer Not to Say Senior Designer">
<text transform="translate(272 887.723) rotate(-19.3009)" fill="#222222" xml:space="preserve" style="white-space: pre" font-family="Sentient" font-size="12" letter-spacing="0em"><tspan x="48.0586" y="53.84"> &#10;</tspan></text>
<text transform="translate(272 887.723) rotate(-19.3009)" fill="#222222" xml:space="preserve" style="white-space: pre" font-family="Sentient" font-size="12" letter-spacing="0em"><tspan x="31.9395" y="11.84">30 y/o&#10;</tspan><tspan x="28.2539" y="27.84">Female&#10;</tspan><tspan x="0.363281" y="43.84">Prefer Not to Say&#10;</tspan></text>
<text transform="translate(272 887.723) rotate(-19.3009)" fill="#222222" xml:space="preserve" style="white-space: pre" font-family="Sentient" font-size="12" letter-spacing="0em"><tspan x="4.58203" y="69.84">Senior Designer</tspan></text>
</g>
</g>
<g id="Group 351">
<path id="Vector 355" d="M358.664 379.649L384.744 386.638" stroke="#222222" stroke-width="0.5"/>
<g id="32 y/o Female White/Caucasian Art Director">
<text transform="translate(339.297 318.19) rotate(15)" fill="#222222" xml:space="preserve" style="white-space: pre" font-family="Sentient" font-size="12" letter-spacing="0em"><tspan x="49.0586" y="53.84"> &#10;</tspan></text>
<text transform="translate(339.297 318.19) rotate(15)" fill="#222222" xml:space="preserve" style="white-space: pre" font-family="Sentient" font-size="12" letter-spacing="0em"><tspan x="33.5547" y="11.84">32 y/o&#10;</tspan><tspan x="29.2539" y="27.84">Female&#10;</tspan><tspan x="0.173828" y="43.84">White/Caucasian&#10;</tspan></text>
<text transform="translate(339.297 318.19) rotate(15)" fill="#222222" xml:space="preserve" style="white-space: pre" font-family="Sentient" font-size="12" letter-spacing="0em"><tspan x="16.791" y="69.84">Art Director</tspan></text>
</g>
</g>
</g>
<defs>
<clipPath id="clip0_1896_2943">
<rect width="573" height="982" fill="white"/>
</clipPath>
</defs>
</svg>
